<svg xmlns="http://www.w3.org/2000/svg" width="12.031" height="7.07" viewBox="0 0 12.031 7.07"><defs><style>.a,.b,.c{fill:#fff;}.b{opacity:0.4;}.c{opacity:0.2;}</style></defs><g transform="translate(0)"><path class="a" d="M11.99,14.508a.507.507,0,1,0,.717.717L15.735,12.2a.5.5,0,0,0,0-.717L12.707,8.452a.507.507,0,1,0-.717.717l2.675,2.67Z" transform="translate(-3.854 -8.304)"/><path class="b" d="M11.99,14.508a.507.507,0,1,0,.717.717L15.735,12.2a.5.5,0,0,0,0-.717L12.707,8.452a.507.507,0,1,0-.717.717l2.675,2.67Z" transform="translate(-7.847 -8.304)"/><path class="c" d="M11.99,14.508a.507.507,0,1,0,.717.717L15.735,12.2a.5.5,0,0,0,0-.717L12.707,8.452a.507.507,0,1,0-.717.717l2.675,2.67Z" transform="translate(-11.841 -8.304)"/></g></svg>