<svg xmlns="http://www.w3.org/2000/svg" width="759.599" height="826.472" viewBox="0 0 759.599 826.472"><defs><style>.a,.b,.c,.d{fill:#1d7dd4;}.a{opacity:0.2;}.b{opacity:0.5;}.c{opacity:0.6;}</style></defs><g transform="translate(-559.828 -2337.543)"><rect class="a" width="605.758" height="525.15" rx="130" transform="translate(697.849 2337.543)"/><path class="b" d="M150.448,2.664,454.114,8.041c83.09,1.471,151.641,56.494,153.112,122.9l6.323,285.389c1.471,66.4-64.694,119.04-147.784,117.569L162.1,528.519c-83.09-1.471-151.641-56.494-153.112-122.9L2.664,120.233C1.193,53.83,67.358,1.193,150.448,2.664Z" transform="matrix(0.996, -0.087, 0.087, 0.996, 652.892, 2427.287)"/><path class="c" d="M149.355,6.24l301.46,12.594C533.3,22.28,602.963,79.393,606.409,146.4l14.81,287.984C624.665,501.39,560.59,552.916,478.1,549.47l-301.46-12.594C94.158,533.43,24.5,476.317,21.05,409.31L6.24,121.326C2.794,54.32,66.868,2.794,149.355,6.24Z" transform="translate(597.379 2531.988) rotate(-12)"/><path class="d" d="M148.35,8.129,447.781,24.537c81.931,4.49,151.99,62.9,156.479,130.46l19.3,290.369c4.49,67.562-58.289,118.691-140.221,114.2L183.9,543.16c-81.931-4.49-151.99-62.9-156.479-130.46L8.129,122.331C3.64,54.769,66.419,3.64,148.35,8.129Z" transform="translate(550.067 2628.038) rotate(-16)"/></g></svg>