<svg xmlns="http://www.w3.org/2000/svg" width="18.3" height="18.301" viewBox="0 0 18.3 18.301"><defs><style>.a{fill:#03a9f4;stroke:#03a9f4;stroke-width:0.3px;}</style></defs><g transform="translate(-4.85 -4.85)"><path class="a" d="M29.136,60.93a4.989,4.989,0,0,0,5.216-4.713.585.585,0,0,0-.527-.533H24.447a.585.585,0,0,0-.527.533A4.989,4.989,0,0,0,29.136,60.93Zm4.242-4.3a4.117,4.117,0,0,1-4.242,3.351,4.116,4.116,0,0,1-4.242-3.351Z" transform="translate(-15.136 -40.547)"/><path class="a" d="M27.113,30.973a.474.474,0,0,0,.474-.474h0a.6.6,0,0,1,1.209,0h0a.474.474,0,0,0,.947,0,1.552,1.552,0,1,0-3.1,0A.474.474,0,0,0,27.113,30.973Z" transform="translate(-17.311 -19.158)"/><path class="a" d="M58.319,30.973a.474.474,0,0,0,.474-.474h0A.6.6,0,0,1,60,30.5h0a.474.474,0,0,0,.947,0,1.552,1.552,0,1,0-3.1,0A.474.474,0,0,0,58.319,30.973Z" transform="translate(-42.276 -19.158)"/><path class="a" d="M14,23a9,9,0,1,0-9-9A9.01,9.01,0,0,0,14,23ZM14,5.947A8.053,8.053,0,1,1,5.947,14,8.062,8.062,0,0,1,14,5.947Z" transform="translate(0 0)"/></g></svg>