<svg xmlns="http://www.w3.org/2000/svg" width="22.18" height="24.001" viewBox="0 0 22.18 24.001"><defs><style>.a{fill:#03a9f4;}</style></defs><g transform="translate(-20.35 -17.768)"><path class="a" d="M39.265,30.985h0A6.423,6.423,0,0,0,32.85,37.4a6.335,6.335,0,0,0,2.169,4.8l-.29,6.843a1.015,1.015,0,0,0,.608.922,1,1,0,0,0,.375.074.983.983,0,0,0,.653-.248l2.9-2.493,2.894,2.487a.976.976,0,0,0,.686.252,1.4,1.4,0,0,0,.385-.075,1.022,1.022,0,0,0,.6-.956l-.29-6.807a6.427,6.427,0,0,0-4.273-11.217ZM44.12,37.4a4.858,4.858,0,0,1-4.85,4.855h0A4.855,4.855,0,1,1,44.12,37.4ZM42.19,47.743l-2.252-1.937a.982.982,0,0,0-1.315-.031l-2.283,1.967.2-4.535a6.384,6.384,0,0,0,5.451,0Z" transform="translate(-7.824 -8.273)"/><path class="a" d="M46.441,41.773l-2.6,2.6a.29.29,0,0,1-.407,0l-.992-.976a.776.776,0,0,0-1.094,1.1l1.742,1.742a.776.776,0,0,0,1.1,0l3.355-3.377a.774.774,0,0,0,0-1.1A.777.777,0,0,0,46.441,41.773Z" transform="translate(-12.999 -14.884)"/><path class="a" d="M48.37,21.665a.975.975,0,0,0,.974-.974V18.743a.974.974,0,0,0-1.948,0v1.948A.975.975,0,0,0,48.37,21.665Z" transform="translate(-16.93)"/><path class="a" d="M30.64,28.441a.978.978,0,0,0,1.378,0h0a.977.977,0,0,0,0-1.379l-1.378-1.378a.979.979,0,0,0-.686-.284h0a.974.974,0,0,0-.688,1.663Z" transform="translate(-5.4 -4.776)"/><path class="a" d="M63.1,28.728a.968.968,0,0,0,.69-.285l1.378-1.378a.978.978,0,0,0,0-1.378h0a.982.982,0,0,0-1.379,0l-1.378,1.378a.975.975,0,0,0,.689,1.664Z" transform="translate(-26.151 -4.779)"/><path class="a" d="M23.272,43.4H21.324a.974.974,0,0,0,0,1.948h1.948a.974.974,0,0,0,0-1.948Z" transform="translate(0 -16.042)"/><path class="a" d="M72.156,43.4H70.207a.974.974,0,1,0,0,1.948h1.948a.974.974,0,0,0,0-1.948Z" transform="translate(-30.599 -16.042)"/></g></svg>