<svg xmlns="http://www.w3.org/2000/svg" xmlns:xlink="http://www.w3.org/1999/xlink" width="19" height="18.289" viewBox="0 0 19 18.289"><defs><style>.a{fill:#03a9f4;}.b{clip-path:url(#a);}.c{fill:#dee5ec;}</style><clipPath id="a"><path class="a" d="M24.331,22.222a.468.468,0,0,0-.139.418l.719,4.245a1.7,1.7,0,0,1-2.459,1.809l-3.827-2.018a.491.491,0,0,0-.441,0l-3.827,2.018A1.7,1.7,0,0,1,11.9,26.884l.719-4.245a.489.489,0,0,0-.139-.418L9.392,19.206a1.729,1.729,0,0,1-.441-1.74,1.68,1.68,0,0,1,1.369-1.16l4.268-.626a.446.446,0,0,0,.348-.255l1.9-3.874a1.708,1.708,0,0,1,3.062,0h0l1.9,3.874a.446.446,0,0,0,.348.255l4.268.626a1.68,1.68,0,0,1,1.369,1.16,1.637,1.637,0,0,1-.441,1.74Z" transform="translate(877 550.4)"/></clipPath></defs><g class="b" transform="translate(-885.876 -561)"><rect class="c" width="26" height="23" transform="translate(880.5 559)"/></g></svg>