<svg xmlns="http://www.w3.org/2000/svg" width="15.706" height="16.7" viewBox="0 0 15.706 16.7"><defs><style>.a{fill:#03a9f4;stroke:#03a9f4;stroke-linecap:round;stroke-width:0.7px;}</style></defs><g transform="translate(-0.15 -0.147)"><g transform="translate(0.5 0.498)"><path class="a" d="M7.985.5A7.347,7.347,0,0,0,.5,7.764h0a7.016,7.016,0,0,0,1.993,4.9c-.055,1.249-.248,2.985-.992,3.83,1.442,0,2.884-1.166,3.765-1.993a7.6,7.6,0,0,0,2.755.5,7.347,7.347,0,0,0,7.485-7.264h0A7.347,7.347,0,0,0,7.985.5Zm0,13.867a7.209,7.209,0,0,1-2.526-.478L5.1,13.752l-.276.276a7.6,7.6,0,0,1-2.131,1.524,10.212,10.212,0,0,0,.441-2.884v-.276L2.943,12.2A6.5,6.5,0,0,1,1.106,7.709a6.7,6.7,0,0,1,6.842-6.6h0A6.75,6.75,0,0,1,14.8,7.737a6.75,6.75,0,0,1-6.814,6.631ZM6.212,5.321h0l.331-.276a2,2,0,0,1,.386-.22l.459-.193a1.837,1.837,0,0,1,.569,0,1.919,1.919,0,0,1,.716.11,1.543,1.543,0,0,1,.551.3,1.754,1.754,0,0,1,.395.505,1.837,1.837,0,0,1,.138.661,1.534,1.534,0,0,1-.11.643,3.921,3.921,0,0,1-.276.468A2.259,2.259,0,0,1,9,7.681l-.358.276a1.984,1.984,0,0,0-.34.22c0,.129-.129.129-.156.193l-.055.257H7.507l-.055-.533a.261.261,0,0,1,.092-.248,1.264,1.264,0,0,1,.276-.22,2.48,2.48,0,0,1,.358-.239,2.645,2.645,0,0,0,.358-.276,1.093,1.093,0,0,0,.276-.395,1.019,1.019,0,0,0,.11-.523.918.918,0,0,0-.083-.386.735.735,0,0,0-.22-.257,1.038,1.038,0,0,0-.312-.23,1.093,1.093,0,0,0-.422-.055,1.322,1.322,0,0,0-.5.092l-.377.193a1.166,1.166,0,0,0-.248.165.294.294,0,0,1-.147.083.22.22,0,0,1-.147-.138ZM7.241,10.51a.441.441,0,0,1,0-.22.523.523,0,0,1,.147-.147.422.422,0,0,1,.165-.119.863.863,0,0,1,.22-.055.863.863,0,0,1,.22.055.422.422,0,0,1,.165.119.523.523,0,0,1,.11.165.441.441,0,0,1,.037.2.487.487,0,0,1-.055.22.505.505,0,0,1-.276.276.459.459,0,0,1-.22,0,.459.459,0,0,1-.22,0,.505.505,0,0,1-.276-.276c0-.083,0-.165,0-.22Z" transform="translate(-0.5 -0.498)"/></g></g></svg>