<svg xmlns="http://www.w3.org/2000/svg" width="28.937" height="25" viewBox="0 0 28.937 25"><defs><style>.a{fill:#91a8bf;stroke:#91a8bf;stroke-linecap:round;}</style></defs><g transform="translate(-824.7 -300.5)"><path class="a" d="M-19.649,141.281a8.029,8.029,0,0,0-8.151,7.909,7.634,7.634,0,0,0,2.174,5.343c-.06,1.358-.272,3.23-1.087,4.166,1.57,0,3.14-1.268,4.106-2.174a8.206,8.206,0,0,0,2.989.543,8.029,8.029,0,0,0,8.151-7.909A8.031,8.031,0,0,0-19.649,141.281Zm0,15.094a7.777,7.777,0,0,1-2.747-.513l-.392-.151-.3.3a8.36,8.36,0,0,1-2.325,1.66,11.07,11.07,0,0,0,.483-3.14v-.3l-.211-.211a7.077,7.077,0,0,1-1.962-4.891,7.3,7.3,0,0,1,7.457-7.185,7.347,7.347,0,0,1,7.457,7.215A7.347,7.347,0,0,1-19.649,156.375Zm18.566-4.136a6.55,6.55,0,0,1-1-3.8,8.054,8.054,0,0,0,2.143-5.494A8.364,8.364,0,0,0-8.419,134.7a8.56,8.56,0,0,0-7.457,4.287.341.341,0,0,0,.121.453.341.341,0,0,0,.453-.121,7.839,7.839,0,0,1,6.853-3.955A7.689,7.689,0,0,1-.63,142.911a7.474,7.474,0,0,1-2.053,5.132l-.091.091v.151A9.18,9.18,0,0,0-2.019,152a7.529,7.529,0,0,1-3.17-1.992l-.151-.151-.211.091a7.688,7.688,0,0,1-2.868.543.335.335,0,0,0-.332.332.335.335,0,0,0,.332.332,8.792,8.792,0,0,0,2.928-.513c1.087,1,2.626,2.113,4.166,2.113H-.57Zm-9.375-10.355a.779.779,0,0,0-.785.785.779.779,0,0,0,.785.785.779.779,0,0,0,.785-.785A.761.761,0,0,0-10.458,141.885Zm3.189,0a.779.779,0,0,0-.785.785.779.779,0,0,0,.785.785.8.8,0,0,0,.785-.785A.779.779,0,0,0-7.269,141.885Zm3.121,0a.779.779,0,0,0-.785.785.779.779,0,0,0,.785.785.779.779,0,0,0,.785-.785A.779.779,0,0,0-4.148,141.885Zm-17.433,4.649h0l.362-.3a1.924,1.924,0,0,1,.423-.242c.151-.06.332-.121.513-.181a1.955,1.955,0,0,1,.6-.06,2.251,2.251,0,0,1,.785.121,1.653,1.653,0,0,1,.6.332,1.88,1.88,0,0,1,.423.543,1.824,1.824,0,0,1,.151.725,1.591,1.591,0,0,1-.121.694,2.867,2.867,0,0,1-.3.513,2.413,2.413,0,0,1-.392.392c-.151.121-.272.211-.392.3a3.208,3.208,0,0,0-.332.272c-.091.091-.181.091-.211.211l-.06.272h-.634l-.06-.574c0-.151.03-.151.091-.272s.181-.151.3-.242a4.416,4.416,0,0,1,.392-.272,1.938,1.938,0,0,0,.392-.3,1.083,1.083,0,0,0,.3-.423,1.079,1.079,0,0,0,.121-.574.964.964,0,0,0-.091-.423.822.822,0,0,0-.242-.3,1.044,1.044,0,0,0-.362-.211,1.174,1.174,0,0,0-.453-.06,1.462,1.462,0,0,0-.543.091c-.151.06-.272.121-.392.181a2.12,2.12,0,0,0-.272.181.276.276,0,0,1-.151.091.228.228,0,0,1-.211-.121Zm1.117,5.645a.665.665,0,0,1,.03-.242.631.631,0,0,1,.121-.181.632.632,0,0,1,.181-.121.569.569,0,0,1,.242-.06.711.711,0,0,1,.242.06.632.632,0,0,1,.181.121.631.631,0,0,1,.121.181.569.569,0,0,1,.06.242.711.711,0,0,1-.06.242.632.632,0,0,1-.121.181.632.632,0,0,1-.181.121.588.588,0,0,1-.242.03.665.665,0,0,1-.242-.03.632.632,0,0,1-.181-.121.632.632,0,0,1-.121-.181C-20.434,152.33-20.464,152.24-20.464,152.179Z" transform="translate(853 166.3)"/></g></svg>