<?xml version="1.0" encoding="utf-8"?>
<!-- Generator: Adobe Illustrator 16.0.3, SVG Export Plug-In . SVG Version: 6.00 Build 0)  -->
<!DOCTYPE svg PUBLIC "-//W3C//DTD SVG 1.1//EN" "http://www.w3.org/Graphics/SVG/1.1/DTD/svg11.dtd">
<svg version="1.1" id="Layer_1" xmlns="http://www.w3.org/2000/svg" xmlns:xlink="http://www.w3.org/1999/xlink" x="0px" y="0px"
	 width="25.328px" height="44.5px" viewBox="16.5 10 25.328 44.5" enable-background="new 16.5 10 25.328 44.5"
	 xml:space="preserve">
<g transform="translate(17.5 14.5)">
	<g transform="matrix(1, 0, 0, 1, -17.5, -14.5)">
		<path fill="#FFFFFF" d="M29.163,54.5c-0.747,0.024-1.373-0.561-1.4-1.307v-9.991c0.572,0.111,1.153,0.167,1.736,0.167
			c0.355,0,0.71-0.021,1.063-0.063v9.887C30.534,53.939,29.909,54.523,29.163,54.5z M37.628,51.545h-3.777v-9.3
			c2.865-1.585,4.646-4.601,4.649-7.875c-0.001-3.277-1.782-6.294-4.649-7.88v-9.035h3.777c2.32,0,4.2,1.88,4.2,4.2c0,0,0,0,0,0
			V47.35C41.825,49.668,39.945,51.545,37.628,51.545L37.628,51.545z M24.242,51.545H20.7c-2.32,0-4.2-1.881-4.2-4.199l0,0V21.651
			c0-2.319,1.88-4.2,4.2-4.2l0,0h3.543v2.332h-1.678l0.066,0.234c0.183,0.833,0.798,1.505,1.612,1.76v2.383
			c-0.931-0.145-1.797-0.566-2.484-1.211c-0.697-0.65-1.179-1.498-1.382-2.429l-0.145-0.662c-0.818,0.212-1.392,0.947-1.4,1.792
			v25.694c0.001,1.031,0.836,1.865,1.867,1.866h3.543v2.332V51.545z M27.764,25.537L27.764,25.537v-9.73
			c0.027-0.747,0.653-1.331,1.4-1.306c0.747-0.024,1.372,0.56,1.399,1.306v9.626c-0.353-0.042-0.708-0.063-1.063-0.063
			C28.917,25.37,28.336,25.426,27.764,25.537L27.764,25.537z"/>
	</g>
	<circle fill="#FFFFFF" cx="12" cy="19.87" r="7"/>
	<path d="M10.238,21.684v-0.559h0.749v0.559H10.238z M8.738,22.242v-0.558H7.992v-0.559H7.244v-2.794h1.5v2.791h0.749v0.559h0.748
		v0.558L8.738,22.242z M10.984,21.126v-2.795h0.749v2.791L10.984,21.126z M12.483,22.242v-0.558h3.748v0.558H12.483z M16.228,21.684
		v-1.117h0.748v1.117H16.228z M13.237,20.567v-0.558H12.49v-1.117h0.747v-0.561h3.744v0.558h-2.994v1.117h2.244v0.558L13.237,20.567
		z"/>
</g>
</svg>
