<svg xmlns="http://www.w3.org/2000/svg" width="11.868" height="16" viewBox="0 0 11.868 16"><defs><style>.a{fill:#fff;}</style></defs><g transform="translate(-470.8 -100)"><path class="a" d="M19.742,7.135h-.651V4.857a4.357,4.357,0,1,0-8.714,0V7.135H9.726a.941.941,0,0,0-.926.926v7.512a.941.941,0,0,0,.926.926H19.742a.941.941,0,0,0,.926-.926V8.062A.941.941,0,0,0,19.742,7.135Zm-4.031,6.61H13.733l.351-1.678a1.179,1.179,0,1,1,1.8-1,1.212,1.212,0,0,1-.551,1Zm-.977-6.61h-2.8V4.857a2.8,2.8,0,1,1,5.609,0V7.135Z" transform="translate(462 99.5)"/></g></svg>