<svg xmlns="http://www.w3.org/2000/svg" width="17.606" height="13.438" viewBox="0 0 17.606 13.438"><defs><style>.a{fill:#03a9f4;stroke:#fff;stroke-width:0.1px;}</style></defs><g transform="translate(19.556 -3.95) rotate(90)"><path class="a" d="M14.837,7.835h.834A1.667,1.667,0,0,1,17.338,9.5v8.336a1.667,1.667,0,0,1-1.667,1.667h-10A1.667,1.667,0,0,1,4,17.839V9.5A1.667,1.667,0,0,1,5.667,7.835H6.5A.834.834,0,1,1,6.5,9.5H5.667v8.336h10V9.5h-.834a.834.834,0,1,1,0-1.667Zm-4.8-5.544a.834.834,0,0,1,1.267,0l2.314,2.314a.834.834,0,1,1-1.179,1.179L11.5,4.85v7.987a.834.834,0,1,1-1.667,0V4.85L8.9,5.784A.834.834,0,1,1,7.722,4.606Z"/></g></svg>