<svg xmlns="http://www.w3.org/2000/svg" width="17.039" height="18.123" viewBox="0 0 17.039 18.123"><defs><style>.a{fill:#647688;stroke:#647688;stroke-linecap:round;stroke-width:0.7px;}</style></defs><g transform="translate(0.35 0.351)"><g transform="translate(0 0)"><path class="a" d="M8.69.5a8,8,0,0,1,8.15,7.91h0a7.64,7.64,0,0,1-2.17,5.34c.06,1.36.27,3.25,1.08,4.17-1.57,0-3.14-1.27-4.1-2.17a8.28,8.28,0,0,1-3,.54A8,8,0,0,1,.5,8.38h0A8,8,0,0,1,8.69.5Zm0,15.1a7.85,7.85,0,0,0,2.75-.52l.39-.15.3.3a8.28,8.28,0,0,0,2.32,1.66,11.12,11.12,0,0,1-.48-3.14v-.3l.21-.21a7.08,7.08,0,0,0,2-4.89A7.3,7.3,0,0,0,8.73,1.16h0A7.35,7.35,0,0,0,1.27,8.38,7.35,7.35,0,0,0,8.69,15.6Z" transform="translate(-0.5 -0.498)"/><path class="a" d="M5.51,7.46a.77.77,0,0,1,.78.77h0A.78.78,0,0,1,5.52,9h0a.8.8,0,0,1-.79-.78h0a.76.76,0,0,1,.74-.78Z" transform="translate(5.82 -0.498)"/><path class="a" d="M8.7,7.46a.77.77,0,0,1,.78.77h0A.78.78,0,0,1,8.71,9h0a.81.81,0,0,1-.79-.79.78.78,0,0,1,.78-.78Z" transform="translate(-0.56 -0.498)"/><path class="a" d="M11.82,7.46a.77.77,0,0,1,.78.77h0a.78.78,0,0,1-.77.79h0a.8.8,0,0,1-.79-.78h0A.78.78,0,0,1,11.82,7.46Z" transform="translate(-6.8 -0.498)"/></g></g></svg>