<svg xmlns="http://www.w3.org/2000/svg" width="24" height="19.197" viewBox="0 0 24 19.197"><defs><style>.a{fill:#91a8bf;}</style></defs><g transform="translate(-824.999 -182)"><path class="a" d="M-13127.2,636.2a.8.8,0,0,1-.8-.8V621a.8.8,0,0,1,.8-.8h6.4a.786.786,0,0,1,.567.232l2.161,2.166H-13108a.8.8,0,0,1,.8.8v12a.8.8,0,0,1-.8.8Zm.8-1.6h17.6V624.2h-9.6a.791.791,0,0,1-.567-.232l-2.161-2.166h-5.271Zm20.8,0a.8.8,0,0,1-.8-.8.8.8,0,0,1,.8-.8V621h-11.2a.79.79,0,0,1-.566-.232l-2.161-2.166h-5.271a.8.8,0,0,1-.8.8.8.8,0,0,1-.8-.8v-.8a.8.8,0,0,1,.8-.8h6.4a.789.789,0,0,1,.567.232l2.16,2.167h11.671a.8.8,0,0,1,.8.8v13.6a.8.8,0,0,1-.8.8Zm-13.887-1.6a.783.783,0,0,1-.4-.1.807.807,0,0,1-.4-.7v-5.88a.8.8,0,0,1,.4-.688.8.8,0,0,1,.8,0l5.09,2.936a.8.8,0,0,1,.4.69.808.808,0,0,1-.4.693l-5.09,2.944a.777.777,0,0,1-.383.1Zm.8-2.182,2.688-1.552-2.687-1.56Z" transform="translate(13953.001 -435.001)"/></g></svg>