<svg xmlns="http://www.w3.org/2000/svg" width="17.6" height="16" viewBox="0 0 17.6 16"><defs><style>.a{fill:#03a9f4;}</style></defs><g transform="translate(-5.001 -6)"><path class="a" d="M7224.2,9038a.8.8,0,1,1,0-1.6h1.6v-12.8h-1.6a.8.8,0,1,1,0-1.6h4.8a.8.8,0,1,1,0,1.6h-1.6v12.8h1.6a.8.8,0,1,1,0,1.6Zm5.6-4a.8.8,0,1,1,0-1.6h4a.8.8,0,1,1,0,1.6Zm-12,0a.8.8,0,0,1,0-1.6h5.6a.8.8,0,1,1,0,1.6Zm12-6.4a.8.8,0,1,1,0-1.6h4a.8.8,0,1,1,0,1.6Zm-12,0a.8.8,0,0,1,0-1.6h5.6a.8.8,0,1,1,0,1.6Z" transform="translate(-7212 -9016)"/></g></svg>