<svg xmlns="http://www.w3.org/2000/svg" xmlns:xlink="http://www.w3.org/1999/xlink" width="95.384" height="95.894" viewBox="0 0 95.384 95.894"><defs><style>.a{fill:#fff;stroke:rgba(0,0,0,0);}.b{filter:url(#a);}</style><filter id="a" x="0" y="0" width="95.384" height="95.894" filterUnits="userSpaceOnUse"><feOffset dy="2" input="SourceAlpha"/><feGaussianBlur stdDeviation="5.5" result="b"/><feFlood flood-opacity="0.161"/><feComposite operator="in" in2="b"/><feComposite in="SourceGraphic"/></filter></defs><g transform="matrix(0.848, 0.53, -0.53, 0.848, 585.178, 423.387)"><g class="b" transform="matrix(0.85, -0.53, 0.53, 0.85, -720.62, -48.96)"><path class="a" d="M21.2,45.049l-.382-.621-4.3-7.005L9.929,41.467A.78.78,0,0,1,8.917,41.3l-.089-.108L5.253,36.81A4.582,4.582,0,0,1,4.417,37a4.709,4.709,0,0,1-2.087-.2A4.653,4.653,0,0,1,.086,35.2a.431.431,0,0,1,.122-.627l1.218-.747.273-.168a.432.432,0,0,1,.55.082,2.089,2.089,0,0,0,2.649.4,2.1,2.1,0,0,0,.31-.234c.014-.013.024-.028.038-.041a2.074,2.074,0,0,0,.219-.243c.005-.006.009-.013.013-.019a2.107,2.107,0,0,0,.322-.651,2.149,2.149,0,0,0,.084-.559,2.052,2.052,0,0,0-.141-.795.412.412,0,0,1-.029-.139.043.043,0,0,1,0-.01s0-.009,0-.013a.432.432,0,0,1,.206-.365l1.065-.654.108-.066.318-.195a.409.409,0,0,1,.073-.035.431.431,0,0,1,.273-.013.419.419,0,0,1,.267.222c.051.105.1.211.139.317.013.034.024.067.036.1.027.073.053.147.077.222.013.041.023.081.035.122.019.068.037.136.053.205.009.044.019.087.028.131.014.067.026.134.036.2.007.045.014.089.019.134.009.068.016.136.021.205,0,.042.008.085.01.128,0,.075.005.149.005.224,0,.036,0,.072,0,.109,0,.109-.007.217-.016.325v0c0,.047-.012.095-.017.143s-.013.116-.022.175l0,.022a.042.042,0,0,0,0,.01.032.032,0,0,1,0-.009.035.035,0,0,0,0,.009c0,.008,0,.015,0,.022-.017.109-.04.215-.066.322,0,.016-.007.03-.011.046q-.036.147-.083.292l-.021.064q-.045.133-.1.264l-.031.079c-.034.081-.072.16-.111.24l-.043.089c-.039.075-.082.149-.125.222-.017.03-.034.061-.053.091-.046.073-.095.145-.145.216l-.056.082c-.071.1-.145.19-.223.281L9.386,37.9,9.474,38a.779.779,0,0,0,1.012.172l4.716-2.9L13.559,32.6a.415.415,0,0,1-.046-.124.478.478,0,0,1-.009-.105h0a.448.448,0,0,1,.047-.183c0-.007.006-.015.009-.021a.391.391,0,0,1,.137-.147l21.673-13.3a.421.421,0,0,1,.58.139l3.042,4.955,4.6,7.492a.421.421,0,0,1-.139.58l-21.672,13.3a.421.421,0,0,1-.58-.138ZM14.391,26.767,9.156,15.916l-1.112-2.3a.423.423,0,0,1,.2-.564l17.823-8.6a.422.422,0,0,1,.563.2L29.6,10.815l2.251,4.666L32.974,17.8h0a.423.423,0,0,1-.2.564L22.99,23.086l-8.035,3.878a.422.422,0,0,1-.563-.2ZM24.725,16.542l-4.169,2.823a.245.245,0,0,0-.017.355,2.738,2.738,0,0,0,4.522-3.061.272.272,0,0,0-.231-.147A.185.185,0,0,0,24.725,16.542ZM14.99,13.359a2.917,2.917,0,0,0-1.226,3.45,2.917,2.917,0,0,0,4.75,1.167,2.918,2.918,0,0,0-1.849-5.045q-.075,0-.151,0A2.905,2.905,0,0,0,14.99,13.359ZM22.577,9.71a2.272,2.272,0,1,0,1.187-.337A2.273,2.273,0,0,0,22.577,9.71Zm-9.863-.8a2.792,2.792,0,0,1,4.944-2.5.311.311,0,0,1-.119.45L16.87,7.2,13.148,9.082a.311.311,0,0,1-.434-.171Zm-5.39-.95a.95.95,0,0,1,.922-.977l2.474-.072a.95.95,0,1,1,.055,1.9L8.3,8.884H8.273A.951.951,0,0,1,7.324,7.962Zm4-2.332L9.337,4.152a.951.951,0,0,1,1.137-1.525l1.983,1.479a.952.952,0,0,1,.33,1.076.968.968,0,0,1-.136.254.95.95,0,0,1-1.33.194Zm2.254-2.11-.291-2.457A.95.95,0,0,1,15.171.838L15.463,3.3a.949.949,0,0,1-.832,1.056.949.949,0,0,1-1.056-.832Z" transform="matrix(0.85, 0.53, -0.53, 0.85, 41.17, 15.2)"/></g></g></svg>