<svg xmlns="http://www.w3.org/2000/svg" width="44.337" height="45" viewBox="0 0 44.337 45"><defs><style>.a{fill:#03a9f4;}</style></defs><g transform="translate(-3.2 -2.5)"><path class="a" d="M42.753,2.5H7.984A4.771,4.771,0,0,0,3.2,7.284V33.195a4.771,4.771,0,0,0,4.784,4.784h9.426l4.453,7.532A4.031,4.031,0,0,0,25.368,47.5a4.075,4.075,0,0,0,3.505-1.989l4.453-7.532h9.426a4.771,4.771,0,0,0,4.784-4.784V7.284A4.771,4.771,0,0,0,42.753,2.5Zm1.374,30.695A1.324,1.324,0,0,1,42.8,34.521H32.379a1.673,1.673,0,0,0-1.468.853l-4.974,8.384a.653.653,0,0,1-1.137,0l-4.974-8.384a1.731,1.731,0,0,0-1.468-.853H7.984a1.324,1.324,0,0,1-1.326-1.326V7.284A1.324,1.324,0,0,1,7.984,5.958H42.753a1.324,1.324,0,0,1,1.326,1.326V33.195Z"/><path class="a" d="M32.463,24.3a4.09,4.09,0,0,0-2.984,1.279A3.962,3.962,0,0,0,28.2,28.468a4.188,4.188,0,0,0,1.042,2.795,3.742,3.742,0,0,0,2.795,1.089,8.138,8.138,0,0,1-1.658,3.742c-.095.142-.237.284-.379.474a.641.641,0,0,0,0,.805l1.563,1.658a.6.6,0,0,0,.853,0,21.041,21.041,0,0,0,1.895-2.463,13.4,13.4,0,0,0,2.321-7.342,4.914,4.914,0,0,0-1.279-3.505A3.458,3.458,0,0,0,32.463,24.3Z" transform="translate(-13.158 -11.474)"/><path class="a" d="M58.063,24.3a4.09,4.09,0,0,0-2.984,1.279A3.962,3.962,0,0,0,53.8,28.468a4.188,4.188,0,0,0,1.042,2.795,3.742,3.742,0,0,0,2.795,1.089,8.138,8.138,0,0,1-1.658,3.742c-.095.142-.237.284-.379.474a.641.641,0,0,0,0,.805l1.563,1.658a.6.6,0,0,0,.853,0,21.04,21.04,0,0,0,1.895-2.463,13.4,13.4,0,0,0,2.321-7.342,4.914,4.914,0,0,0-1.279-3.505A3.458,3.458,0,0,0,58.063,24.3Z" transform="translate(-26.632 -11.474)"/></g></svg>