<?xml version="1.0" encoding="utf-8"?>
<!-- Generator: Adobe Illustrator 16.0.3, SVG Export Plug-In . SVG Version: 6.00 Build 0)  -->
<!DOCTYPE svg PUBLIC "-//W3C//DTD SVG 1.1//EN" "http://www.w3.org/Graphics/SVG/1.1/DTD/svg11.dtd">
<svg version="1.1" id="Layer_1" xmlns="http://www.w3.org/2000/svg" xmlns:xlink="http://www.w3.org/1999/xlink" x="0px" y="0px"
	 width="41.608px" height="42.001px" viewBox="16.894 14.499 41.608 42.001" enable-background="new 16.894 14.499 41.608 42.001"
	 xml:space="preserve">
<g transform="translate(16.5 14.5)">
	<g transform="matrix(1, 0, 0, 1, -16.5, -14.5)">
		<path fill="#FFFFFF" d="M40.1,56.5c-0.701-0.016-1.258-0.598-1.241-1.3c0.001-0.005,0.001-0.011,0.001-0.015v-3.941
			c0.014-0.68,0.561-1.229,1.24-1.244c0.691-0.027,1.272,0.511,1.299,1.201c0.001,0.01,0.002,0.021,0.002,0.031v4.017
			c0,0.681-0.543,1.235-1.224,1.251H40.1z M34.85,56.5c-0.701-0.016-1.257-0.597-1.242-1.298c0-0.006,0-0.011,0-0.017v-3.941
			c0.016-0.679,0.563-1.225,1.241-1.24c0.338-0.012,0.666,0.116,0.908,0.352c0.242,0.23,0.384,0.547,0.393,0.881v4.017
			c-0.007,0.338-0.148,0.659-0.393,0.894c-0.239,0.222-0.552,0.347-0.878,0.351L34.85,56.5z M29.6,56.5
			c-0.702-0.016-1.258-0.598-1.243-1.299c0-0.006,0-0.011,0-0.016v-3.941c0.015-0.68,0.562-1.229,1.242-1.244
			c0.338-0.012,0.666,0.116,0.908,0.352c0.243,0.23,0.385,0.547,0.394,0.881v4.017c-0.007,0.339-0.149,0.659-0.394,0.894
			c-0.236,0.227-0.55,0.354-0.878,0.357H29.6z M29.634,48.134C27,48.119,24.869,45.984,24.86,43.35V27.572
			c0.011-2.632,2.139-4.764,4.77-4.78h15.746c2.632,0.014,4.761,2.145,4.774,4.777V43.35c-0.01,2.633-2.139,4.766-4.772,4.781
			L29.634,48.134z M29.628,35.465c0.012,4.35,3.547,7.865,7.896,7.854c4.349-0.011,7.866-3.546,7.854-7.896
			c-0.012-4.342-3.536-7.855-7.878-7.854c-4.351,0.011-7.873,3.541-7.873,7.892L29.628,35.465z M21.753,44.624h-3.929
			c-0.704-0.019-1.26-0.604-1.242-1.308c0.017-0.676,0.56-1.221,1.236-1.241h4.005c0.704,0.003,1.272,0.576,1.269,1.28
			c-0.003,0.704-0.576,1.272-1.28,1.27L21.753,44.624z M21.753,39.364h-4.01c-0.704-0.016-1.262-0.599-1.247-1.304
			c0.007-0.339,0.15-0.663,0.397-0.896c0.243-0.235,0.57-0.363,0.908-0.353h4.021c0.702,0.016,1.257,0.598,1.242,1.3
			c-0.029,0.699-0.607,1.249-1.307,1.244L21.753,39.364z M53.109,39.364c-0.703-0.039-1.242-0.641-1.203-1.344
			c0.037-0.671,0.589-1.198,1.261-1.205h0.06h0.012h4.02c0.704,0.017,1.262,0.601,1.244,1.305c-0.008,0.339-0.15,0.661-0.396,0.895
			c-0.245,0.238-0.577,0.365-0.918,0.352h-3.959h-0.055L53.109,39.364z M21.753,34.1h-3.929c-0.704,0-1.274-0.57-1.274-1.274
			s0.571-1.274,1.274-1.274h4c0.704,0.002,1.273,0.575,1.271,1.279s-0.575,1.273-1.279,1.271L21.753,34.1z M57.188,34.1h-3.926
			c-0.704,0.001-1.275-0.568-1.277-1.271s0.568-1.275,1.271-1.277h4c0.704,0.017,1.262,0.602,1.244,1.306c0,0,0,0.001,0,0.001
			c-0.007,0.338-0.148,0.659-0.395,0.891c-0.242,0.231-0.564,0.358-0.899,0.353L57.188,34.1z M57.188,28.84h-3.926
			c-0.705-0.018-1.26-0.604-1.242-1.308c0.018-0.676,0.561-1.221,1.236-1.241h4c0.703,0.026,1.253,0.618,1.227,1.322
			c-0.025,0.679-0.578,1.218-1.258,1.227H57.188z M40.068,21.034c-0.707-0.037-1.248-0.639-1.212-1.345
			c0-0.003,0.001-0.006,0.001-0.01v-3.991c0.044-0.701,0.648-1.233,1.35-1.189c0.656,0.042,1.174,0.577,1.191,1.235V19.7
			c0,0.041,0,0.083,0,0.122c-0.035,0.679-0.594,1.212-1.273,1.215L40.068,21.034z M34.848,21c-0.706-0.021-1.262-0.61-1.241-1.316
			l0,0v-3.943c0.017-0.679,0.563-1.225,1.241-1.241c0.337-0.004,0.663,0.122,0.908,0.353c0.242,0.23,0.383,0.547,0.393,0.881v4.016
			c-0.013,0.685-0.564,1.236-1.249,1.25H34.848z M45.348,21c-0.703-0.018-1.259-0.603-1.24-1.306c0-0.003,0-0.007,0-0.01v-3.943
			c0.016-0.678,0.562-1.225,1.24-1.241c0.336-0.004,0.662,0.122,0.907,0.353c0.243,0.23,0.384,0.547,0.394,0.881v4.016
			c-0.014,0.692-0.578,1.248-1.271,1.25H45.348z"/>
	</g>
</g>
</svg>
