<svg xmlns="http://www.w3.org/2000/svg" width="24" height="27.636" viewBox="0 0 24 27.636"><defs><style>.a{fill:#91a8bf;}</style></defs><g transform="translate(1.01 -0.006)"><path class="a" d="M2.3,8.075H6.738L4.618,6.54A.856.856,0,0,1,5.181,5l4.574.009L11.178.6A.854.854,0,0,1,12.8.6l1.424,4.41L18.861,5a.853.853,0,0,1,.5,1.542L17.239,8.076h4.436a2.32,2.32,0,0,1,2.314,2.314V25.328a2.322,2.322,0,0,1-2.314,2.314H2.3A2.318,2.318,0,0,1-.01,25.328V10.389A2.325,2.325,0,0,1,2.3,8.075Zm7.072,3.606c3.089-2.253,2.138-2.253,5.227,0-1.182-3.615-1.49-2.727,1.616-4.975-3.682.007-3.063.541-4.229-3.072-1.169,3.622-.418,3.08-4.229,3.072C10.948,9.012,10.516,8.2,9.376,11.681Zm6.405-1.895.68,2.079.588,1.8h0l.006.021v0l0,.012,0,.012,0,.012v0l0,.008,0,.012h0l0,.011a.855.855,0,0,1-1.388.821l-3.7-2.7-3.7,2.7a.855.855,0,0,1-1.363-.917L8.2,9.786H2.3a.6.6,0,0,0-.6.6V25.328a.607.607,0,0,0,.6.6H21.676a.606.606,0,0,0,.6-.6V10.389a.6.6,0,0,0-.6-.6H15.782Zm-9.464,12.9a.856.856,0,0,1,0-1.711H16.9a.856.856,0,0,1,0,1.711Zm0-3.955a.856.856,0,0,1,0-1.711H16.9a.856.856,0,0,1,0,1.711Z" transform="translate(-1 0)"/></g></svg>