<svg xmlns="http://www.w3.org/2000/svg" width="27.444" height="24" viewBox="0 0 27.444 24"><defs><style>.a{fill:#fff;}</style></defs><g transform="translate(-131 -33)"><path class="a" d="M13.706,4a.98.98,0,0,0-.965.979v.015h0V18.782L6.579,12.62a.979.979,0,1,0-1.384,1.386l7.834,7.834.011.009,0,0,.03.028h0l.04.035,0,0,.026.019,0,0,.046.033,0,0,.035.021,0,0,.04.022.005,0a.284.284,0,0,0,.035.016l.006,0,.039.018.006,0,.044.015.007,0,.034.012.007,0,.044.011h.006l.04.009h.006l.042.006H13.6l.046,0h0l.051,0h.048c.03,0,.059,0,.087-.006h0l.012,0h-.006l.067-.011H13.9l.053-.011-.007,0,.044-.011-.007,0,.065-.02-.007,0,.042-.015-.006,0a.569.569,0,0,0,.057-.025l-.006,0c.032-.015.056-.027.08-.039L14.2,22l.006,0,0,0c.023-.013.041-.025.059-.037l0,0c.016-.011.029-.019.041-.028l0,0c.024-.018.045-.034.064-.051h0l.006-.006h0c.016-.014.032-.027.045-.04l7.833-7.833a.979.979,0,0,0-.683-1.682h-.028a.978.978,0,0,0-.673.295h0L14.7,18.785V4.983A.979.979,0,0,0,13.72,4h-.015ZM.991,26.041H.977A.979.979,0,0,0,.977,28H26.463a.979.979,0,0,0,0-1.959H.991Z" transform="translate(131.002 29)"/></g></svg>