<?xml version="1.0" encoding="utf-8"?>
<!-- Generator: Adobe Illustrator 16.0.3, SVG Export Plug-In . SVG Version: 6.00 Build 0)  -->
<!DOCTYPE svg PUBLIC "-//W3C//DTD SVG 1.1//EN" "http://www.w3.org/Graphics/SVG/1.1/DTD/svg11.dtd">
<svg version="1.1" id="Layer_1" xmlns="http://www.w3.org/2000/svg" xmlns:xlink="http://www.w3.org/1999/xlink" x="0px" y="0px"
	 width="159.5px" height="158.5px" viewBox="15.5 12.5 159.5 158.5" enable-background="new 15.5 12.5 159.5 158.5"
	 xml:space="preserve">
<g transform="translate(5 12)">
	<g transform="matrix(1, 0, 0, 1, -5, -12)">
		<path d="M53,17h90c17.674,0,32,14.327,32,32v90c0,17.673-14.326,32-32,32H53c-17.673,0-32-14.327-32-32V49
			C21,31.327,35.327,17,53,17z"/>
	</g>
	<g transform="translate(63 34.543)">
		<g transform="matrix(1, 0, 0, 1, -68, -46.54)">
			<path d="M97.261,142.128c-1.784,0.057-3.278-1.338-3.344-3.122v-23.877c2.203,0.429,4.459,0.514,6.688,0.252v23.625
				C100.541,140.79,99.045,142.185,97.261,142.128z M117.488,135.067h-9.027v-22.213c10.4-5.742,14.177-18.831,8.434-29.231
				c-1.961-3.549-4.884-6.473-8.434-8.433V53.601h9.027c5.538,0.006,10.027,4.495,10.033,10.033v61.4
				C127.516,130.573,123.027,135.061,117.488,135.067L117.488,135.067z M85.5,135.067h-8.467
				c-5.539-0.007-10.026-4.495-10.033-10.033v-61.4c-0.001-5.54,4.489-10.032,10.029-10.033c0.001,0,0.003,0,0.004,0H85.5v5.572
				h-4.008l0.157,0.56c0.435,1.992,1.905,3.598,3.851,4.207v5.7c-4.579-0.717-8.248-4.172-9.237-8.7l-0.346-1.582
				c-1.954,0.507-3.325,2.262-3.344,4.281v61.4c0.003,2.462,1.998,4.456,4.46,4.459H85.5v5.574V135.067z M93.916,72.914
				L93.916,72.914V49.661c0.124-1.847,1.722-3.244,3.568-3.121c1.675,0.112,3.008,1.446,3.121,3.121v23
				c-2.229-0.262-4.485-0.177-6.688,0.251L93.916,72.914z"/>
		</g>
		<circle cx="30" cy="47.457" r="17"/>
		<path d="M25.854,51.819v-1.335h1.79v1.335H25.854z M22.277,53.152v-1.333h-1.79v-1.335H18.7v-6.673h3.577v6.671h1.79v1.335h1.787
			v1.333L22.277,53.152z M27.644,50.484v-6.673h1.79v6.671L27.644,50.484z M31.236,53.152v-1.333h8.943v1.333H31.236z M40.18,51.819
			v-2.67h1.791v2.67H40.18z M33.023,49.149v-1.333h-1.787v-2.67h1.787v-1.335h8.945v1.333h-7.156v2.67h5.367v1.333L33.023,49.149z"
			/>
	</g>
</g>
</svg>
