<svg xmlns="http://www.w3.org/2000/svg" xmlns:xlink="http://www.w3.org/1999/xlink" width="196" height="196" viewBox="0 0 196 196">
  <defs>
    <linearGradient id="linear-gradient" x1="0.356" y1="0.343" x2="0" y2="0.037" gradientUnits="objectBoundingBox">
      <stop offset="0" stop-color="#03a9f4"/>
      <stop offset="1" stop-color="#7df4d4"/>
    </linearGradient>
    <filter id="base" x="0" y="0" width="196" height="196" filterUnits="userSpaceOnUse">
      <feOffset dy="4" input="SourceAlpha"/>
      <feGaussianBlur stdDeviation="7" result="blur"/>
      <feFlood flood-opacity="0.102"/>
      <feComposite operator="in" in2="blur"/>
      <feComposite in="SourceGraphic"/>
    </filter>
    <filter id="Path_60" x="49.5" y="47.5" width="98" height="98" filterUnits="userSpaceOnUse">
      <feOffset dy="2" input="SourceAlpha"/>
      <feGaussianBlur stdDeviation="5.5" result="blur-2"/>
      <feFlood flood-opacity="0.161"/>
      <feComposite operator="in" in2="blur-2"/>
      <feComposite in="SourceGraphic"/>
    </filter>
  </defs>
  <g id="icon-app-explore-big" transform="translate(21 17)">
    <g transform="matrix(1, 0, 0, 1, -21, -17)" filter="url(#base)">
      <rect id="base-2" data-name="base" width="154" height="154" rx="32" transform="translate(21 17)" fill="url(#linear-gradient)"/>
    </g>
    <g id="icon-explore" transform="translate(45 45)">
      <g transform="matrix(1, 0, 0, 1, -66, -62)" filter="url(#Path_60)">
        <path id="Path_60-2" data-name="Path 60" d="M60.849,254.747a32.5,32.5,0,1,0,32.5,32.5A32.537,32.537,0,0,0,60.849,254.747Zm-2.018,10.71a2.018,2.018,0,0,1,4.035,0v2.191a2.018,2.018,0,1,1-4.035,0ZM41.25,289.265H39.059a2.018,2.018,0,1,1,0-4.035H41.25a2.018,2.018,0,1,1,0,4.035Zm21.617,19.773a2.018,2.018,0,0,1-4.035,0v-2.191a2.018,2.018,0,0,1,4.035,0ZM75.662,275.9l-7.914,7.861a7.725,7.725,0,0,1-10.394,10.386l-8.469,8.47a2.018,2.018,0,1,1-2.853-2.854l8.321-8.321a7.728,7.728,0,0,1,10.693-10.685l7.773-7.72a2.018,2.018,0,1,1,2.844,2.863Zm6.978,13.368H80.448a2.018,2.018,0,1,1,0-4.035h2.191a2.018,2.018,0,1,1,0,4.035Z" transform="translate(37.65 -192.75)" fill="#fff"/>
      </g>
    </g>
  </g>
</svg>
