<svg xmlns="http://www.w3.org/2000/svg" width="16.394" height="25" viewBox="0 0 16.394 25"><defs><style>.a{fill:#fff;}</style></defs><path class="a" d="M12.613,25H3.754a.877.877,0,0,1-.884-.888.9.9,0,0,1,.884-.917h3.56V20.277A8.288,8.288,0,0,1,2.125,17.6,8.165,8.165,0,0,1,0,12.111V9.806a.877.877,0,0,1,.883-.889.9.9,0,0,1,.911.889v2.306a6.4,6.4,0,1,0,12.807,0V9.806a.9.9,0,0,1,1.794,0v2.306A8.183,8.183,0,0,1,14.269,17.6,8.369,8.369,0,0,1,9.08,20.3v2.889h3.533a.9.9,0,0,1,.883.917A.876.876,0,0,1,12.613,25ZM8.2,16.916a4.872,4.872,0,0,1-3.488-1.455,4.78,4.78,0,0,1-1.4-3.434V4.945a4.885,4.885,0,1,1,9.77-.028L13.054,12A4.893,4.893,0,0,1,8.2,16.916ZM8.211,4.028a.691.691,0,0,0-.689.69V7.782a.69.69,0,0,0,1.38,0V4.718A.691.691,0,0,0,8.211,4.028Zm0-2.222a.691.691,0,0,0-.689.69V2.5a.69.69,0,0,0,1.38,0V2.5A.691.691,0,0,0,8.211,1.805Z" transform="translate(0 0)"/></svg>