<?xml version="1.0" encoding="utf-8"?>
<!-- Generator: Adobe Illustrator 16.0.3, SVG Export Plug-In . SVG Version: 6.00 Build 0)  -->
<!DOCTYPE svg PUBLIC "-//W3C//DTD SVG 1.1//EN" "http://www.w3.org/Graphics/SVG/1.1/DTD/svg11.dtd">
<svg version="1.1" id="Layer_1" xmlns="http://www.w3.org/2000/svg" xmlns:xlink="http://www.w3.org/1999/xlink" x="0px" y="0px"
	 width="42.501px" height="48px" viewBox="16.499 9 42.501 48" enable-background="new 16.499 9 42.501 48" xml:space="preserve">
<g transform="translate(-18.5 -7.5)">
	<g transform="matrix(1, 0, 0, 1, 18.5, 7.5)">
		<path fill="#FFFFFF" d="M37.499,13.497c-10.493,0-19,8.506-19,19c0,10.493,8.507,19,19,19s19-8.507,19-19
			C56.486,22.009,47.987,13.509,37.499,13.497z M36.318,19.758c0.02-0.651,0.563-1.164,1.215-1.145
			c0.625,0.018,1.127,0.521,1.145,1.145v1.281c-0.019,0.651-0.563,1.164-1.213,1.145c-0.625-0.018-1.127-0.52-1.146-1.145V19.758z
			 M26.041,33.677H24.76c-0.651,0.019-1.194-0.494-1.213-1.145s0.494-1.195,1.145-1.214c0.023,0,0.046,0,0.068,0h1.281
			c0.651-0.019,1.195,0.494,1.214,1.146s-0.494,1.195-1.146,1.213C26.086,33.678,26.064,33.678,26.041,33.677z M38.68,45.236
			c-0.02,0.651-0.563,1.164-1.215,1.145c-0.625-0.018-1.127-0.52-1.145-1.145V43.95c0.019-0.651,0.563-1.164,1.213-1.146
			c0.625,0.019,1.127,0.521,1.146,1.146V45.236z M46.159,25.861l-4.627,4.6c1.132,2.223,0.247,4.941-1.976,6.073
			c-1.289,0.656-2.813,0.655-4.101-0.001l-4.951,4.951c-0.47,0.452-1.216,0.438-1.669-0.031c-0.44-0.457-0.439-1.182,0.001-1.639
			l4.864-4.863c-1.356-2.095-0.758-4.892,1.337-6.248c1.495-0.968,3.419-0.967,4.914,0.002l4.544-4.513
			c0.448-0.473,1.195-0.493,1.668-0.044c0.473,0.449,0.492,1.195,0.045,1.668c-0.018,0.017-0.033,0.034-0.051,0.05L46.159,25.861z
			 M50.238,33.676h-1.281c-0.651,0.019-1.195-0.494-1.214-1.145s0.494-1.195,1.146-1.214c0.023,0,0.045,0,0.068,0h1.281
			c0.651-0.019,1.194,0.494,1.213,1.146c0.02,0.651-0.493,1.195-1.145,1.213C50.283,33.677,50.261,33.677,50.238,33.676z"/>
	</g>
</g>
</svg>
