<svg xmlns="http://www.w3.org/2000/svg" width="24" height="24" viewBox="0 0 24 24"><defs><style>.a{fill:#03a9f4;}</style></defs><path class="a" d="M5.25,24a5.25,5.25,0,1,1,5.25-5.25A5.256,5.256,0,0,1,5.25,24Zm0-9A3.75,3.75,0,1,0,9,18.75,3.754,3.754,0,0,0,5.25,15Zm0-4.5A5.25,5.25,0,1,1,10.5,5.25,5.256,5.256,0,0,1,5.25,10.5Zm0-9A3.75,3.75,0,1,0,9,5.25,3.754,3.754,0,0,0,5.25,1.5ZM3.75,21a.75.75,0,0,1-.53-1.28l3-3A.75.75,0,0,1,7.28,17.78l-3,3a.748.748,0,0,1-.53.22Zm3,0a.748.748,0,0,1-.53-.22l-3-3a.75.75,0,1,1,1.06-1.06l3,3A.75.75,0,0,1,6.75,21ZM4.875,7.125a.748.748,0,0,1-.53-.22l-1.5-1.5a.75.75,0,0,1,1.06-1.06l.97.97,1.72-1.72A.75.75,0,1,1,7.655,4.655l-2.25,2.25a.748.748,0,0,1-.53.22ZM23.25,18H13.5a.75.75,0,0,1,0-1.5h9.75a.75.75,0,0,1,0,1.5Zm0-13.5H13.5a.75.75,0,0,1,0-1.5h9.75a.75.75,0,0,1,0,1.5ZM18,21H13.5a.75.75,0,0,1,0-1.5H18A.75.75,0,0,1,18,21ZM18,7.5H13.5a.75.75,0,0,1,0-1.5H18a.75.75,0,0,1,0,1.5Z"/></svg>