<?xml version="1.0" encoding="utf-8"?>
<!-- Generator: Adobe Illustrator 16.0.3, SVG Export Plug-In . SVG Version: 6.00 Build 0)  -->
<!DOCTYPE svg PUBLIC "-//W3C//DTD SVG 1.1//EN" "http://www.w3.org/Graphics/SVG/1.1/DTD/svg11.dtd">
<svg version="1.1" id="Layer_1" xmlns="http://www.w3.org/2000/svg" xmlns:xlink="http://www.w3.org/1999/xlink" x="0px" y="0px"
	 width="37.5px" height="42px" viewBox="14.167 12.252 37.5 42" enable-background="new 14.167 12.252 37.5 42"
	 xml:space="preserve">
<g transform="translate(-275 147)">
	<g transform="translate(292 -132)">
		<g transform="matrix(1, 0, 0, 1, -17, -15)">
			<path fill="#FFFFFF" d="M43.435,33.261l3.319-3.3c3.422-3.4,3.44-8.931,0.041-12.353c-0.014-0.014-0.027-0.027-0.041-0.041
				c-3.458-3.416-9.02-3.416-12.478,0l-1.209,1.2c-1.654-2.368-4.363-3.775-7.251-3.767c-4.853-0.015-8.8,3.906-8.817,8.759v18.988
				c0.017,4.854,3.964,8.774,8.817,8.76c2.889,0.006,5.598-1.402,7.251-3.771l1.209,1.2c3.458,3.415,9.019,3.415,12.478,0
				c3.422-3.399,3.44-8.931,0.041-12.353c-0.014-0.014-0.027-0.027-0.041-0.041L43.435,33.261"/>
		</g>
	</g>
</g>
</svg>
