<svg xmlns="http://www.w3.org/2000/svg" width="183.841" height="52.505" viewBox="0 0 183.841 52.505"><defs><style>.a{fill:#95bf47;}.b{fill:#5e8e3e;}.c{fill:#fff;}</style></defs><g transform="translate(0)"><g transform="translate(0 0)"><path class="a" d="M39.489,10a.465.465,0,0,0-.441-.4c-.184,0-4.118-.294-4.118-.294s-2.721-2.721-3.052-3.015a1.223,1.223,0,0,0-1.1-.147c-.037,0-.588.184-1.544.478-.919-2.684-2.537-5.111-5.368-5.111h-.257A3.461,3.461,0,0,0,20.958,0c-6.618,0-9.78,8.273-10.773,12.464-2.574.809-4.412,1.36-4.633,1.434-1.434.441-1.471.478-1.655,1.838C3.75,16.766,0,45.813,0,45.813l29.231,5.478,15.847-3.419C45.078,47.836,39.526,10.258,39.489,10ZM27.613,7.06c-.735.221-1.581.478-2.463.772V7.28a12.3,12.3,0,0,0-.588-4.008C26.032,3.493,26.988,5.148,27.613,7.06ZM22.723,3.64a12.306,12.306,0,0,1,.662,4.449v.294c-1.618.515-3.346,1.03-5.111,1.581C19.267,6.177,21.142,4.339,22.723,3.64ZM20.774,1.765a1.473,1.473,0,0,1,.846.294c-2.133.993-4.375,3.493-5.331,8.53-1.4.441-2.758.846-4.045,1.25C13.347,8.015,16.031,1.765,20.774,1.765Z" transform="translate(0 0)"/><path class="b" d="M89.38,19.993c-.184,0-4.118-.294-4.118-.294s-2.721-2.721-3.052-3.015a.59.59,0,0,0-.4-.184L79.6,61.725l15.847-3.419S89.9,20.692,89.858,20.434A.637.637,0,0,0,89.38,19.993Z" transform="translate(-50.332 -10.433)"/><path class="c" d="M35.75,48.533,33.8,54.343a9.06,9.06,0,0,0-3.824-.919c-3.089,0-3.236,1.949-3.236,2.427,0,2.647,6.912,3.677,6.912,9.891,0,4.89-3.089,8.052-7.28,8.052A10.045,10.045,0,0,1,18.8,70.668l1.36-4.449s2.647,2.28,4.853,2.28a1.961,1.961,0,0,0,2.059-1.985c0-3.456-5.662-3.6-5.662-9.3,0-4.78,3.419-9.413,10.369-9.413A8.207,8.207,0,0,1,35.75,48.533Z" transform="translate(-11.888 -30.223)"/></g><path d="M153.488,63.629c-1.581-.846-2.39-1.581-2.39-2.574,0-1.25,1.14-2.059,2.9-2.059a10.513,10.513,0,0,1,3.9.846l1.434-4.412s-1.324-1.03-5.221-1.03c-5.442,0-9.229,3.125-9.229,7.5,0,2.5,1.765,4.375,4.118,5.736,1.912,1.066,2.574,1.838,2.574,2.978,0,1.177-.956,2.133-2.721,2.133a12.27,12.27,0,0,1-5.111-1.36L142.2,75.8a11.661,11.661,0,0,0,6.14,1.544c5.589,0,9.633-2.758,9.633-7.721C157.937,66.9,155.915,65.026,153.488,63.629Z" transform="translate(-89.915 -34.398)"/><path d="M205.046,38.329a8.4,8.4,0,0,0-6.582,3.309l-.074-.037,2.39-12.5h-6.214L188.5,60.941h6.214l2.059-10.883c.809-4.118,2.941-6.655,4.927-6.655,1.4,0,1.949.956,1.949,2.316a14,14,0,0,1-.257,2.758l-2.353,12.464h6.214l2.427-12.869a24.59,24.59,0,0,0,.441-4.081C210.157,40.425,208.318,38.329,205.046,38.329Z" transform="translate(-119.192 -18.4)"/><path d="M264.264,54.2c-7.5,0-12.464,6.765-12.464,14.3,0,4.817,2.978,8.714,8.567,8.714,7.354,0,12.317-6.582,12.317-14.3C272.721,58.428,270.111,54.2,264.264,54.2Zm-3.052,18.237c-2.133,0-3.015-1.8-3.015-4.081,0-3.567,1.838-9.376,5.221-9.376,2.206,0,2.941,1.912,2.941,3.75C266.36,66.554,264.485,72.437,261.213,72.437Z" transform="translate(-159.217 -34.272)"/><path d="M322.091,54.2c-4.192,0-6.582,3.714-6.582,3.714h-.074l.368-3.346h-5.515c-.257,2.243-.772,5.7-1.25,8.273l-4.339,22.8h6.214l1.728-9.229h.147a7.288,7.288,0,0,0,3.64.809c7.317,0,12.1-7.5,12.1-15.075C328.526,57.95,326.651,54.2,322.091,54.2Zm-5.956,18.311a3.92,3.92,0,0,1-2.574-.919l1.029-5.809c.735-3.9,2.758-6.471,4.927-6.471,1.912,0,2.5,1.765,2.5,3.419C322.018,66.775,319.628,72.511,316.135,72.511Z" transform="translate(-192.667 -34.272)"/><path d="M387.566,29.9A3.555,3.555,0,0,0,384,33.5a2.889,2.889,0,0,0,2.941,3.125h.074a3.5,3.5,0,0,0,3.64-3.6A2.943,2.943,0,0,0,387.566,29.9Z" transform="translate(-242.81 -18.906)"/><path d="M370,77.6h6.214l4.228-22.1h-6.251Z" transform="translate(-233.957 -35.094)"/><path d="M416.207,37.948h-4.339l.221-1.03c.368-2.133,1.618-4.008,3.714-4.008a6.271,6.271,0,0,1,1.985.331L419,28.352a7.991,7.991,0,0,0-3.383-.552,9.365,9.365,0,0,0-6.1,2.059,11.618,11.618,0,0,0-3.6,7.06l-.184,1.03h-2.9l-.919,4.706h2.9L401.5,60.083h6.214l3.309-17.428h4.3Z" transform="translate(-253.875 -17.578)"/><path d="M452.9,55.5s-3.9,9.817-5.625,15.185H447.2c-.11-1.728-1.544-15.185-1.544-15.185h-6.545l3.75,20.259a1.352,1.352,0,0,1-.147,1.03,10.909,10.909,0,0,1-3.383,3.75A14.358,14.358,0,0,1,435.8,82.3l1.728,5.295a14.322,14.322,0,0,0,6.1-3.383c2.831-2.647,5.478-6.765,8.163-12.354L459.405,55.5Z" transform="translate(-275.564 -35.094)"/></g></svg>