<svg xmlns="http://www.w3.org/2000/svg" width="189.652" height="42.311" viewBox="0 0 189.652 42.311"><defs><style>.a{fill:red;}.b{fill:#fff;}.c{fill:#282828;}</style></defs><g transform="translate(0)"><path class="a" d="M59.185,6.62a7.571,7.571,0,0,0-5.326-5.326C49.13,0,30.215,0,30.215,0S11.3,0,6.571,1.244A7.727,7.727,0,0,0,1.244,6.62C0,11.349,0,21.155,0,21.155S0,31.011,1.244,35.69a7.571,7.571,0,0,0,5.326,5.326c4.779,1.294,23.644,1.294,23.644,1.294s18.915,0,23.644-1.244a7.571,7.571,0,0,0,5.326-5.326c1.244-4.729,1.244-14.535,1.244-14.535S60.48,11.349,59.185,6.62Z"/><path class="b" d="M48.6,42.419l15.73-9.06L48.6,24.3Z" transform="translate(-24.408 -12.204)"/><g transform="translate(66.453 1.643)"><path class="c" d="M172.985,50.933a6.44,6.44,0,0,1-2.539-3.783,24.941,24.941,0,0,1-.747-6.77V36.547a23.417,23.417,0,0,1,.846-6.869,7.1,7.1,0,0,1,2.688-3.783,8.783,8.783,0,0,1,4.828-1.195,8.429,8.429,0,0,1,4.729,1.195,6.906,6.906,0,0,1,2.588,3.783,22.951,22.951,0,0,1,.846,6.869V40.38a23.257,23.257,0,0,1-.8,6.82,6.906,6.906,0,0,1-2.588,3.783,8.734,8.734,0,0,1-4.878,1.195A9.4,9.4,0,0,1,172.985,50.933Zm6.72-4.181a12.425,12.425,0,0,0,.5-4.231V34.257a12.476,12.476,0,0,0-.5-4.181,1.786,1.786,0,0,0-3.435,0,12.476,12.476,0,0,0-.5,4.181V42.52a12.425,12.425,0,0,0,.5,4.231,1.749,1.749,0,0,0,1.742,1.294A1.717,1.717,0,0,0,179.705,46.751Z" transform="translate(-151.681 -14.048)"/><path class="c" d="M355.074,40.329v1.344a36.061,36.061,0,0,0,.149,3.833,3.185,3.185,0,0,0,.647,1.842,1.747,1.747,0,0,0,1.493.6,1.867,1.867,0,0,0,1.842-1.045,9.14,9.14,0,0,0,.548-3.484l5.127.3a5.136,5.136,0,0,1,.05.946c0,2.439-.647,4.281-1.991,5.476a8.255,8.255,0,0,1-5.675,1.792c-2.937,0-4.978-.946-6.172-2.788s-1.792-4.679-1.792-8.562V35.949c0-3.982.6-6.869,1.842-8.711s3.335-2.738,6.272-2.738a8.4,8.4,0,0,1,4.729,1.145,6.09,6.09,0,0,1,2.29,3.484,25.484,25.484,0,0,1,.647,6.571v4.53H355.074Zm.747-11.15a3.8,3.8,0,0,0-.6,1.842,36.495,36.495,0,0,0-.149,3.883V36.8h4.38V34.9a37.809,37.809,0,0,0-.149-3.883,3.409,3.409,0,0,0-.647-1.842,1.8,1.8,0,0,0-1.394-.548A1.51,1.51,0,0,0,355.821,29.179Z" transform="translate(-241.88 -13.947)"/><path class="c" d="M140.27,30.54,133.5,6h5.924l2.389,11.1q.9,4.107,1.344,7.019h.149c.2-1.394.647-3.684,1.344-6.969L147.139,6h5.924l-6.869,24.54V42.288H140.32V30.54Z" transform="translate(-133.5 -4.656)"/><path class="c" d="M225.278,25.7V52.231H220.6L220.1,49h-.149a6.127,6.127,0,0,1-5.724,3.684,4.528,4.528,0,0,1-3.883-1.742C209.5,49.792,209.1,48,209.1,45.511V25.7h5.973V45.163a6.067,6.067,0,0,0,.4,2.539,1.342,1.342,0,0,0,1.294.747,2.554,2.554,0,0,0,1.493-.5,2.426,2.426,0,0,0,1.045-1.195V25.7Z" transform="translate(-171.468 -14.55)"/><path class="c" d="M286.778,25.7V52.231H282.1L281.6,49h-.149a6.126,6.126,0,0,1-5.724,3.684,4.528,4.528,0,0,1-3.883-1.742C271,49.792,270.6,48,270.6,45.511V25.7h5.973V45.163a6.068,6.068,0,0,0,.4,2.539,1.342,1.342,0,0,0,1.294.747,2.554,2.554,0,0,0,1.493-.5,2.426,2.426,0,0,0,1.045-1.195V25.7Z" transform="translate(-202.355 -14.55)"/><path class="c" d="M256.371,10.828h-5.924V42.288h-5.824V10.828H238.7V6h17.671Z" transform="translate(-186.334 -4.656)"/><path class="c" d="M326.478,18.681a6.716,6.716,0,0,0-1.742-3.634A4.753,4.753,0,0,0,321.4,13.9a5.366,5.366,0,0,0-3.086.946,6.088,6.088,0,0,0-2.19,2.439h-.05V3.3H310.3V40.932h4.928l.6-2.489h.149a5.087,5.087,0,0,0,2.091,2.14,6.467,6.467,0,0,0,3.086.8,4.665,4.665,0,0,0,4.43-2.788c.946-1.842,1.444-4.779,1.444-8.711V25.7A39.888,39.888,0,0,0,326.478,18.681ZM321,29.483a34.447,34.447,0,0,1-.249,4.53,5.064,5.064,0,0,1-.8,2.34,1.938,1.938,0,0,1-1.493.7,2.466,2.466,0,0,1-1.344-.348,2.875,2.875,0,0,1-1-1.045V20.623a4.071,4.071,0,0,1,1.045-1.792,2.415,2.415,0,0,1,1.593-.7,1.614,1.614,0,0,1,1.394.7,5.691,5.691,0,0,1,.7,2.389,40.127,40.127,0,0,1,.2,4.779v3.484Z" transform="translate(-222.293 -3.3)"/></g></g></svg>