<svg xmlns="http://www.w3.org/2000/svg" width="218.52" height="49.581" viewBox="0 0 218.52 49.581"><defs><style>.a{fill:#00749a;}.b{fill:#464342;}</style></defs><path class="a" d="M274.095,48.227h-8.6v.913c2.691,0,3.123.577,3.123,3.989V59.28c0,3.412-.432,4.037-3.123,4.037-2.066-.288-3.46-1.394-5.382-3.508l-2.21-2.4c2.979-.529,4.565-2.4,4.565-4.518,0-2.642-2.258-4.661-6.487-4.661H247.52v.913c2.691,0,3.123.577,3.123,3.989V59.28c0,3.412-.433,4.037-3.123,4.037v.913h9.563v-.913c-2.691,0-3.123-.625-3.123-4.037V57.55h.817l5.334,6.679h13.984c6.872,0,9.851-3.652,9.851-8.025S280.967,48.227,274.095,48.227ZM253.96,56.059V49.669h1.97a3.2,3.2,0,0,1,0,6.391h-1.97Zm20.279,6.68H273.9c-1.73,0-1.97-.432-1.97-2.643V49.669h2.307c5,0,5.91,3.652,5.91,6.487C280.149,59.087,279.236,62.74,274.239,62.74Z" transform="translate(-147.357 -28.711)"/><path class="a" d="M149.282,50.768l3.316-9.8c.962-2.835.529-3.652-2.547-3.652v-.961h9.034v.961c-3.027,0-3.748.721-4.949,4.229l-5.479,16.435h-.624l-4.9-15.041-5,15.041h-.625l-5.334-16.435c-1.153-3.508-1.922-4.229-4.71-4.229v-.961h10.668v.961c-2.836,0-3.6.673-2.6,3.652l3.22,9.8,4.854-14.417h.913Z" transform="translate(-75.884 -21.641)"/><path class="a" d="M207.613,63.933c-5.286,0-9.611-3.892-9.611-8.65,0-4.709,4.325-8.6,9.611-8.6s9.611,3.893,9.611,8.6C217.224,60.041,212.9,63.933,207.613,63.933Zm0-15.761c-4.421,0-5.959,3.988-5.959,7.112,0,3.172,1.538,7.112,5.959,7.112,4.47,0,6.007-3.94,6.007-7.112C213.62,52.16,212.082,48.172,207.613,48.172Z" transform="translate(-117.877 -27.791)"/><path class="b" d="M350.675,56.2v.961h-11V56.2c3.22,0,3.8-.817,3.8-5.623V42.886c0-4.806-.577-5.575-3.8-5.575V36.35h9.947c4.949,0,7.69,2.547,7.69,5.96,0,3.316-2.74,5.911-7.69,5.911h-2.739v2.354C346.878,55.381,347.455,56.2,350.675,56.2ZM349.617,38.08h-2.739v8.362h2.739c2.691,0,3.941-1.874,3.941-4.132C353.558,40,352.309,38.08,349.617,38.08Z" transform="translate(-202.217 -21.64)"/><path class="b" d="M417.892,59.712l-.24.865c-.432,1.586-.961,2.163-4.373,2.163h-.673c-2.5,0-2.931-.577-2.931-3.988v-2.21c3.748,0,4.037.336,4.037,2.835h.913V52.215h-.913c0,2.5-.289,2.835-4.037,2.835V49.669h2.642c3.413,0,3.941.577,4.373,2.163l.241.913h.768l-.336-4.517H403.235v.913c2.691,0,3.124.577,3.124,3.989V59.28c0,3.121-.367,3.907-2.489,4.02-2.016-.308-3.4-1.408-5.3-3.491l-2.211-2.4c2.98-.529,4.565-2.4,4.565-4.518,0-2.642-2.258-4.661-6.487-4.661h-8.458v.913c2.691,0,3.123.577,3.123,3.989V59.28c0,3.412-.432,4.037-3.123,4.037v.913h9.563v-.913c-2.691,0-3.124-.625-3.124-4.037V57.55h.817l5.334,6.679h19.75l.289-4.516h-.722Zm-25.469-3.653V49.669h1.97a3.2,3.2,0,0,1,0,6.391h-1.97Z" transform="translate(-229.789 -28.711)"/><path class="b" d="M480.1,63.934a7.1,7.1,0,0,1-4.325-1.634,3.453,3.453,0,0,0-.768,1.634H474.1V57.3h.961a5.332,5.332,0,0,0,5.43,5.045c1.538,0,2.787-.865,2.787-2.306,0-1.249-1.105-2.211-3.075-3.124l-2.739-1.3a5.229,5.229,0,0,1-3.364-4.614c0-2.307,2.163-4.277,5.142-4.277a6.018,6.018,0,0,1,3.748,1.249,2.716,2.716,0,0,0,.625-1.3h.913v5.671h-1.009c-.337-2.259-1.586-4.133-4.132-4.133-1.346,0-2.6.769-2.6,1.971,0,1.249,1.009,1.922,3.316,2.979l2.642,1.3c2.307,1.105,3.22,2.884,3.22,4.325C485.964,61.82,483.321,63.934,480.1,63.934Z" transform="translate(-282.244 -27.791)"/><path class="b" d="M516.676,63.934a7.1,7.1,0,0,1-4.325-1.634,3.452,3.452,0,0,0-.768,1.634h-.913V57.3h.961a5.332,5.332,0,0,0,5.43,5.045c1.538,0,2.787-.865,2.787-2.306,0-1.249-1.105-2.211-3.076-3.124l-2.739-1.3a5.23,5.23,0,0,1-3.364-4.614c0-2.307,2.163-4.277,5.142-4.277a6.018,6.018,0,0,1,3.748,1.249,2.708,2.708,0,0,0,.624-1.3h.913v5.671h-1.009c-.337-2.259-1.586-4.133-4.132-4.133-1.346,0-2.6.769-2.6,1.971,0,1.249,1.009,1.922,3.316,2.979l2.643,1.3c2.307,1.105,3.22,2.884,3.22,4.325C522.538,61.82,519.9,63.934,516.676,63.934Z" transform="translate(-304.018 -27.791)"/><path class="b" d="M8.708,48.527a21.271,21.271,0,0,0,11.986,19.14L10.549,39.872A21.186,21.186,0,0,0,8.708,48.527Z" transform="translate(-5.184 -23.737)"/><path class="b" d="M49.478,28.9a11.2,11.2,0,0,0-1.754-5.865c-1.078-1.752-2.088-3.235-2.088-4.987a3.683,3.683,0,0,1,3.571-3.775c.094,0,.184.012.276.017a21.262,21.262,0,0,0-32.13,4c.5.015.969.025,1.369.025,2.224,0,5.668-.27,5.668-.27a.879.879,0,0,1,.136,1.752s-1.152.136-2.434.2L29.835,43.04l4.654-13.958L31.176,20c-1.145-.067-2.23-.2-2.23-.2a.879.879,0,0,1,.134-1.752s3.512.27,5.6.27c2.224,0,5.668-.27,5.668-.27a.879.879,0,0,1,.136,1.752s-1.155.136-2.434.2l7.685,22.861,2.121-7.089C48.778,32.834,49.478,30.721,49.478,28.9Z" transform="translate(-10.33 -5.184)"/><path class="b" d="M52.8,65.857,46.416,84.4a21.277,21.277,0,0,0,13.07-.339,1.867,1.867,0,0,1-.151-.293Z" transform="translate(-27.633 -39.207)"/><path class="b" d="M95.651,36.046a16.316,16.316,0,0,1,.143,2.187,20.061,20.061,0,0,1-1.617,7.617l-6.5,18.782a21.27,21.27,0,0,0,7.97-28.586Z" transform="translate(-52.199 -21.459)"/><path class="b" d="M24.791,0A24.791,24.791,0,1,0,49.583,24.79,24.819,24.819,0,0,0,24.791,0Zm0,48.445A23.654,23.654,0,1,1,48.443,24.79,23.682,23.682,0,0,1,24.791,48.445Z"/></svg>