<svg xmlns="http://www.w3.org/2000/svg" width="197.628" height="59.161" viewBox="0 0 197.628 59.161"><defs><style>.a{fill:#03a9f4;}.b{fill:#242b2e;}.c{fill:#1976d2;}.d{fill:#263238;}</style></defs><g transform="translate(0 0)"><path class="a" d="M32.186,40.32V0L13.23,18.97V59.161Z" transform="translate(5.74)"/><path class="b" d="M18.97,0,0,18.97H18.97V0Z"/><path class="a" d="M32.186,0,13.23,18.97H42.681L61.651,0Z" transform="translate(5.74)"/><path class="c" d="M32.186,15.051,13.23,33.892V13.23H32.186Z" transform="translate(5.74 5.74)"/><path class="b" d="M54.526,14.96H40.79v2.968h4.947v13.22h3.785V17.928h5Z" transform="translate(17.697 6.49)"/><path class="b" d="M63.64,24.476V21.594H55.711V17.852h8.775V14.97H51.94V31.144H64.759V28.262H55.711V24.476Z" transform="translate(22.534 6.495)"/><path class="b" d="M62.32,23.095a8.23,8.23,0,0,0,8.144,8.359h.416a9.736,9.736,0,0,0,6.553-2.868l-2.165-2.294a6.352,6.352,0,0,1-4.144,1.864,4.875,4.875,0,0,1-4.961-4.9v-.2a4.832,4.832,0,0,1,4.7-5.09h.215a5.821,5.821,0,0,1,4.144,1.964l2.151-2.538a9.42,9.42,0,0,0-6.395-2.6,8.245,8.245,0,0,0-8.6,7.814A2.392,2.392,0,0,0,62.32,23.095Z" transform="translate(27.037 6.414)"/><path class="b" d="M89.413,31.144V14.97H85.628v6.839H78.315V14.97H74.53V31.144h3.785V24.692h7.313v6.452Z" transform="translate(32.335 6.495)"/><path class="d" d="M98.268,16.43l-.789,1.749a8.431,8.431,0,0,0-4.5-1.434c-2.093,0-3.47.789-3.47,2.165,0,4.2,9.191,2.007,9.162,7.929,0,2.724-2.409,4.474-5.907,4.474a9.32,9.32,0,0,1-6.252-2.495l.846-1.678a8.13,8.13,0,0,0,5.434,2.28c2.352,0,3.828-.961,3.828-2.524,0-4.3-9.162-2.007-9.162-7.858,0-2.567,2.265-4.23,5.649-4.23A9.664,9.664,0,0,1,98.268,16.43Z" transform="translate(37.533 6.425)"/><path class="d" d="M103.806,14.93c4.043,0,6.366,2.007,6.366,5.477s-2.337,5.735-6.366,5.735H99.5V31.3H97.64V14.93Zm-4.3,9.377h4.2c2.939,0,4.646-1.3,4.646-3.843s-1.706-3.728-4.646-3.728H99.59Z" transform="translate(42.361 6.477)"/><path class="d" d="M110.371,16.722v5.363h8.015v1.792h-8.015v5.606h9.263v1.778H108.55V14.93h10.8v1.792Z" transform="translate(47.095 6.477)"/><path class="d" d="M132.578,17.257l-1.118,1.434a6.868,6.868,0,0,0-4.861-2.05,6.452,6.452,0,0,0,0,12.9,7.169,7.169,0,0,0,4.889-1.993l1.147,1.276a9.019,9.019,0,0,1-6.036,2.567,8.245,8.245,0,1,1-.688-16.475h.688A8.833,8.833,0,0,1,132.578,17.257Z" transform="translate(51.199 6.473)"/><path class="d" d="M141.079,16.43l-.76,1.749a8.431,8.431,0,0,0-4.5-1.434c-2.093,0-3.47.789-3.47,2.165,0,4.2,9.191,2.007,9.162,7.929,0,2.724-2.409,4.474-5.908,4.474a9.32,9.32,0,0,1-6.252-2.495l.846-1.678a8.13,8.13,0,0,0,5.406,2.28c2.352,0,3.828-.961,3.828-2.524,0-4.3-9.162-2.007-9.162-7.858,0-2.567,2.266-4.23,5.649-4.23A9.664,9.664,0,0,1,141.079,16.43Z" transform="translate(56.119 6.425)"/></g></svg>