<svg xmlns="http://www.w3.org/2000/svg" width="187.069" height="56" viewBox="0 0 187.069 56"><defs><style>.a{fill:#03a9f4;}.b{fill:#242b2e;}.c{fill:#1976d2;}.d{fill:#263238;}</style></defs><path class="a" d="M31.173,38.166V0L13.23,17.956V56Z" transform="translate(4.726)"/><path class="b" d="M17.956,0,0,17.956H17.956V0Z"/><path class="a" d="M31.173,0,13.23,17.956H41.108L59.064,0Z" transform="translate(4.726)"/><path class="c" d="M31.173,14.954,13.23,32.788V13.23H31.173Z" transform="translate(4.726 4.726)"/><path class="b" d="M53.792,14.96h-13V17.77h4.683V30.283h3.583V17.77h4.737Z" transform="translate(14.572 5.344)"/><path class="b" d="M63.015,23.969V21.24H55.51V17.7h8.306V14.97H51.94V30.28H64.074V27.552H55.51V23.969Z" transform="translate(18.555 5.348)"/><path class="b" d="M62.32,22.651a7.791,7.791,0,0,0,7.709,7.913h.394a9.216,9.216,0,0,0,6.2-2.714l-2.049-2.172a6.013,6.013,0,0,1-3.922,1.764,4.615,4.615,0,0,1-4.7-4.642s0-.136,0-.19a4.574,4.574,0,0,1,4.452-4.818h.2a5.51,5.51,0,0,1,3.922,1.859l2.036-2.4a8.917,8.917,0,0,0-6.053-2.457,7.8,7.8,0,0,0-8.143,7.4A2.265,2.265,0,0,0,62.32,22.651Z" transform="translate(22.263 5.282)"/><path class="b" d="M88.618,30.28V14.97H85.035v6.474H78.113V14.97H74.53V30.28h3.583V24.172h6.922V30.28Z" transform="translate(26.626 5.348)"/><path class="d" d="M97.639,16.344,96.893,18a7.981,7.981,0,0,0-4.262-1.357c-1.982,0-3.285.746-3.285,2.049,0,3.977,8.7,1.9,8.673,7.506,0,2.579-2.28,4.235-5.592,4.235A8.822,8.822,0,0,1,86.51,28.07l.8-1.588a7.7,7.7,0,0,0,5.144,2.158c2.226,0,3.624-.909,3.624-2.389,0-4.072-8.673-1.9-8.673-7.438,0-2.429,2.144-4,5.348-4a9.148,9.148,0,0,1,4.886,1.534Z" transform="translate(30.905 5.291)"/><path class="d" d="M103.476,14.93c3.827,0,6.026,1.9,6.026,5.185s-2.212,5.429-6.026,5.429H99.4V30.43H97.64V14.93ZM99.4,23.806h3.977c2.782,0,4.4-1.235,4.4-3.637s-1.615-3.529-4.4-3.529h-3.9Z" transform="translate(34.882 5.334)"/><path class="d" d="M110.274,16.627V21.7h7.587v1.7h-7.587v5.307h8.768v1.683H108.55V14.93h10.22v1.7Z" transform="translate(38.779 5.334)"/><path class="d" d="M131.8,17.132l-1.059,1.357a6.5,6.5,0,0,0-4.6-1.941,6.108,6.108,0,0,0,0,12.215,6.786,6.786,0,0,0,4.628-1.887l1.086,1.208a8.537,8.537,0,0,1-5.714,2.429,7.8,7.8,0,1,1-.651-15.595h.651A8.361,8.361,0,0,1,131.8,17.132Z" transform="translate(42.159 5.33)"/><path class="d" d="M140.452,16.344,139.733,18a7.981,7.981,0,0,0-4.262-1.357c-1.982,0-3.285.746-3.285,2.049,0,3.977,8.7,1.9,8.673,7.506,0,2.579-2.28,4.235-5.592,4.235a8.822,8.822,0,0,1-5.918-2.362l.8-1.588a7.7,7.7,0,0,0,5.117,2.158c2.226,0,3.624-.909,3.624-2.389,0-4.072-8.673-1.9-8.673-7.438,0-2.429,2.144-4,5.348-4a9.148,9.148,0,0,1,4.886,1.534Z" transform="translate(46.21 5.291)"/></svg>