<svg xmlns="http://www.w3.org/2000/svg" xmlns:xlink="http://www.w3.org/1999/xlink" width="149.81" height="76" viewBox="0 0 149.81 76">
  <defs>
    <linearGradient id="linear-gradient" x1="0.356" y1="0.343" x2="0" y2="0.037" gradientUnits="objectBoundingBox">
      <stop offset="0" stop-color="#03a9f4"/>
      <stop offset="1" stop-color="#7df4d4"/>
    </linearGradient>
    <filter id="name-explore" x="0" y="0" width="149.81" height="76" filterUnits="userSpaceOnUse">
      <feOffset dy="4" input="SourceAlpha"/>
      <feGaussianBlur stdDeviation="7" result="blur"/>
      <feFlood flood-opacity="0.102"/>
      <feComposite operator="in" in2="blur"/>
      <feComposite in="SourceGraphic"/>
    </filter>
  </defs>
  <g transform="matrix(1, 0, 0, 1, 0, 0)" filter="url(#name-explore)">
    <path id="name-explore-2" data-name="name-explore" d="M24.035,8.815a.623.623,0,0,1-.071.177,4.491,4.491,0,0,0-.39.994q-.6,2.094-.976,3.566t-.657,1.473q-.213,0-.213-.284l.035-.248a7.255,7.255,0,0,0,.461-2.732q0-1.739-1.118-2.182A11.738,11.738,0,0,0,17.328,9.1l-2.378-.035a.946.946,0,0,0-.887.71l-1.207,3.194L10.2,19.781q1.278.106,1.668.106a5.456,5.456,0,0,0,3.158-.923,4.806,4.806,0,0,0,1.881-2.52q.177-.532.426-.532.319,0,.319.284a1.581,1.581,0,0,1-.142.39,80.774,80.774,0,0,0-3.513,8.836q-.106.5-.355.5a.22.22,0,0,1-.248-.248,1.523,1.523,0,0,1,.071-.39,11.467,11.467,0,0,0,.532-2.732,1.7,1.7,0,0,0-.781-1.6,5.876,5.876,0,0,0-2.768-.461q-.568,0-.852.71L5.76,30.64a6.471,6.471,0,0,0-.426,1.242q0,.319.639.355l1.845.071q.923.035,1.916.035,5.146,0,7.062-2.236a11.036,11.036,0,0,0,1.845-3.726q.248-.71.6-.71a.22.22,0,0,1,.248.248,6.016,6.016,0,0,1-.355,1.065q-1.349,3.513-1.987,5.5a.943.943,0,0,1-.319.5,1.925,1.925,0,0,1-.816.106H3.985q-4.4,0-5.128-.035t-.727-.284q0-.213.319-.248t2.058-.035a1.306,1.306,0,0,0,.923-.248,5.686,5.686,0,0,0,.745-1.455L9.344,13.464q.319-.674.94-2.2a7.89,7.89,0,0,0,.621-1.881q0-.284-.337-.337T8.244,8.957q-.426,0-.426-.213,0-.355.674-.355H9.521q.958.035,2.342.035L22.439,8.5a4.746,4.746,0,0,0,.781-.035h.213Q24.035,8.46,24.035,8.815ZM38.727,19.639q0,1.242-1.171,1.242-1.029,0-1.029-.852,0-.284.5-.674a.461.461,0,0,0,.142-.39q0-.71-.887-.71-1.242,0-2.91,2.023a13.792,13.792,0,0,0-1.49,2.094,22.08,22.08,0,0,0-1.136,3.016l-.284.923a16.3,16.3,0,0,0-.852,4.613q0,1.987,1.49,1.987a3.467,3.467,0,0,0,2.147-.9,7.131,7.131,0,0,0,1.828-2.253q.426-.816.639-.816.177,0,.177.213a3.993,3.993,0,0,1-1.065,2.058,5.52,5.52,0,0,1-4.436,2.307q-3.442,0-3.442-3.087a10.586,10.586,0,0,1,.106-1.419,11.634,11.634,0,0,1-2.5,3.442,4.21,4.21,0,0,1-2.786,1.029q-2.484,0-2.484-2.165a1.791,1.791,0,0,1,.426-1.207,1.345,1.345,0,0,1,1.065-.5q1.136,0,1.136.994,0,.461-.887,1.136-.142.035-.142.355,0,.781,1.171.781,1.6,0,3.247-2.165a15.213,15.213,0,0,0,2.5-5.323l.426-1.561a13.83,13.83,0,0,0,.6-3.123q0-2.058-1.49-2.058-2.165,0-3.939,2.768-.426.639-.71.639-.213,0-.213-.248,0-.532,1.278-1.845a6.04,6.04,0,0,1,4.294-2.165,3.623,3.623,0,0,1,2.679.852,4.5,4.5,0,0,1,.976,2.874q2.342-3.762,4.862-3.762a2.273,2.273,0,0,1,1.561.532A1.72,1.72,0,0,1,38.727,19.639Zm15.33,2.271a11.517,11.517,0,0,1-3.371,7.825q-3.371,3.708-7.133,3.708a3.21,3.21,0,0,1-3.265-2.165l-2.981,7.346a7.979,7.979,0,0,0-.39,1.1,9.629,9.629,0,0,1-.71,1.561q2.591.106,2.591.355,0,.284-.887.284-.781,0-1.916-.071l-1.065-.071q.035,0-.639.035l-1.526.071-1.419.035q-.745.035-.745-.284,0-.355.994-.39a3.541,3.541,0,0,0,1.632-.319,5.222,5.222,0,0,0,.923-1.668L42.1,20.171q.6-1.455.6-1.526,0-.284-.426-.284h-.355a3.216,3.216,0,0,1-.568.035q-.639,0-.639-.284,0-.248.426-.248h.568a19.456,19.456,0,0,0,3.691-.213,2.134,2.134,0,0,1,.355-.071.188.188,0,0,1,.213.213,17.245,17.245,0,0,1-.994,2.413,14.679,14.679,0,0,1,2.608-1.97,4.532,4.532,0,0,1,2.147-.515,4.311,4.311,0,0,1,3.105,1.171A3.989,3.989,0,0,1,54.057,21.91Zm-3.016-1.242q0-2.094-1.881-2.094-1.845,0-3.762,2.2a19.005,19.005,0,0,0-2.945,5.359l-1.171,2.91a4.289,4.289,0,0,0-.39,1.419,2.13,2.13,0,0,0,.71,1.6,2.386,2.386,0,0,0,1.7.674q2.874,0,5.465-4.826A15.939,15.939,0,0,0,51.041,20.668Zm16-12.456a2.516,2.516,0,0,1-.177.5q-.106.284-.355.852L58.564,28.972a10.311,10.311,0,0,0-.887,2.8q0,.958,1.278.958a3.509,3.509,0,0,0,2.555-1.49q.532-.639.674-.639a.22.22,0,0,1,.248.248q0,.461-1.171,1.49a5.019,5.019,0,0,1-3.478,1.207q-2.91,0-2.91-2.165a10.055,10.055,0,0,1,.887-2.874L63.71,9.135a1.123,1.123,0,0,0,.106-.248q0-.319-.674-.319-1.561,0-1.561-.284,0-.213.319-.213t.976.035q.657.035.976.035A13.236,13.236,0,0,0,66.123,8a3.631,3.631,0,0,1,.532-.071Q67.046,7.928,67.046,8.212Zm11.5,15.295q0,4.152-3.8,7.488a9.322,9.322,0,0,1-6.21,2.626,4.726,4.726,0,0,1-3.62-1.526A5.553,5.553,0,0,1,63.5,28.156a8.848,8.848,0,0,1,1.171-4.223,11.713,11.713,0,0,1,3.123-3.691,9.7,9.7,0,0,1,5.891-2.378,4.422,4.422,0,0,1,3.513,1.561A6.022,6.022,0,0,1,78.543,23.507ZM75.811,21.2q0-2.7-2.413-2.7-2.945,0-5.11,4.223a16.837,16.837,0,0,0-2.058,7.594q0,2.662,2.378,2.662,2.981,0,4.968-3.833A17.536,17.536,0,0,0,75.811,21.2Zm17.814-1.774a1.772,1.772,0,0,1-.461,1.224,1.4,1.4,0,0,1-1.065.515q-.568,0-.568-.39l.071-.355a1.243,1.243,0,0,0,.071-.39.753.753,0,0,0-.852-.852q-1.029,0-2.874,1.987a20.96,20.96,0,0,0-3.478,5.571l-2.555,5.607q-.355.816-.6.816a7.953,7.953,0,0,0-1.1-.106,5.107,5.107,0,0,0-.958.071H79.04q-.319,0-.319-.142,0-.035.106-.142L79,32.485l6-13.627q0-.284-.461-.284H84.4a2.114,2.114,0,0,1-.461.035h-.355q-.532,0-.532-.248,0-.213,1.845-.284a9.032,9.032,0,0,0,2.484-.319,2.938,2.938,0,0,1,.319-.071.188.188,0,0,1,.213.213,7.065,7.065,0,0,1-.461,1.313l-1.313,3.194q3.265-4.542,5.749-4.542Q93.625,17.864,93.625,19.426Zm12.314.781a3.68,3.68,0,0,1-2.058,3.176,9.848,9.848,0,0,1-5.217,1.26,19.961,19.961,0,0,1-2.52-.177,11.8,11.8,0,0,0-1.313,5.075q0,3.158,2.8,3.158a5.809,5.809,0,0,0,4.223-2.271q.461-.5.6-.5a.157.157,0,0,1,.177.177q0,.816-1.668,2.023A6.7,6.7,0,0,1,97,33.514a5.444,5.444,0,0,1-3.8-1.349,4.4,4.4,0,0,1-1.49-3.407q0-3.975,4.329-7.7,3.8-3.265,6.778-3.265Q105.939,17.793,105.939,20.206Zm-2.52-.6a.972.972,0,0,0-1.1-1.1,3.63,3.63,0,0,0-2.236.852A14.688,14.688,0,0,0,96.429,24q.426.035.958.035a7.077,7.077,0,0,0,3.868-1.207A3.84,3.84,0,0,0,103.42,19.6Z" transform="translate(22.87 9.07)" fill="url(#linear-gradient)"/>
  </g>
</svg>
