<svg xmlns="http://www.w3.org/2000/svg" width="842.686" height="486.668" viewBox="0 0 842.686 486.668"><defs><style>.a{opacity:0.82;}.b{fill:#2f84d3;}</style></defs><g class="a" transform="translate(-27.487 -111.566)"><g transform="translate(588.027 516.253)"><path class="b" d="M396.127,408.421l-71.014-41,.706-.409,70.306-40.57,71,40.986Zm-69.131-41,69.131,39.914,69.12-39.907-69.122-39.9Z" transform="translate(-325.113 -326.44)"/></g><g transform="translate(447.895 516.246)"><path class="b" d="M321.72,408.417l-71.012-41,.706-.407,70.3-40.572,71,40.986Zm-69.129-41,69.129,39.914,69.12-39.907-69.122-39.9Z" transform="translate(-250.708 -326.436)"/></g><g transform="translate(167.625 516.231)"><path class="b" d="M172.909,408.407l-71.014-41L102.6,367l70.306-40.57,71,40.986Zm-69.131-41,69.131,39.914,69.12-39.9-69.122-39.9Z" transform="translate(-101.895 -326.428)"/></g><g transform="translate(167.623 435.34)"><path class="b" d="M172.908,365.457l-71.014-41,.706-.407,70.306-40.572,71,40.986Zm-69.131-41,69.131,39.912,69.12-39.9-69.122-39.9Z" transform="translate(-101.894 -283.478)"/></g><g transform="translate(237.688 475.782)"><path class="b" d="M210.108,386.93l-71.013-41,.706-.409,70.3-40.57,71.007,40.986Zm-69.129-41,69.129,39.912,69.122-39.9-69.123-39.9Z" transform="translate(-139.096 -304.951)"/></g><g transform="translate(377.822 475.789)"><path class="b" d="M284.516,386.934l-71.014-41,.706-.409,70.3-40.57,71.007,40.986Zm-69.131-41,69.131,39.912,69.12-39.9-69.123-39.9Z" transform="translate(-213.502 -304.955)"/></g><g transform="translate(97.552 475.774)"><path class="b" d="M135.7,386.926l-71.014-41,.706-.409,70.306-40.57,71.007,40.986Zm-69.131-41L135.7,385.838l69.122-39.9-69.123-39.9Z" transform="translate(-64.689 -304.947)"/></g><g transform="translate(167.621 354.451)"><path class="b" d="M172.907,322.508l-71.014-41,.706-.409,70.3-40.568,71.007,40.984Zm-69.131-41,69.131,39.912,69.12-39.9-69.123-39.9Z" transform="translate(-101.893 -240.529)"/></g><g transform="translate(237.703 314.194)"><path class="b" d="M210.118,301.133l-71.014-41,71.012-40.978,71,40.986Zm-69.131-41,69.131,39.91,69.12-39.9-69.122-39.9Z" transform="translate(-139.104 -219.154)"/></g><g transform="translate(237.709 233.32)"><path class="b" d="M210.119,258.19l-71.012-41,71.011-40.976L281.124,217.2Zm-69.129-41L210.119,257.1,279.241,217.2l-69.123-39.9Z" transform="translate(-139.107 -176.213)"/></g><g transform="translate(27.487 354.442)"><path class="b" d="M98.5,322.5l-71.012-41,.706-.409,70.3-40.57L169.5,281.51Zm-69.129-41L98.5,321.415l69.122-39.9L98.5,241.613Z" transform="translate(-27.487 -240.524)"/></g><g transform="translate(307.77 192.871)"><path class="b" d="M247.321,236.713l-71.014-41,71.012-40.976,71,40.984Zm-69.131-41,69.131,39.912,69.12-39.9-69.122-39.9Z" transform="translate(-176.307 -154.736)"/></g><g transform="translate(307.768 111.98)"><path class="b" d="M247.32,193.763l-71.014-41,71.011-40.976,71.007,40.984Zm-69.131-41,69.131,39.914,69.12-39.907-69.123-39.9Z" transform="translate(-176.306 -111.786)"/></g><g transform="translate(447.904 192.879)"><path class="b" d="M321.727,236.717l-71.014-41,71.012-40.976,71,40.986Zm-69.131-41,69.131,39.914,69.12-39.9-69.122-39.9Z" transform="translate(-250.713 -154.74)"/></g><g transform="translate(307.774 273.76)"><path class="b" d="M247.322,279.664l-71.013-41,71.011-40.978,71.007,40.986Zm-69.129-41,69.129,39.914,69.122-39.907-69.123-39.9Z" transform="translate(-176.309 -197.685)"/></g><g transform="translate(728.156 435.363)"><path class="b" d="M470.53,365.471l-71.014-41,.706-.409,70.3-40.57,71.007,40.988Zm-69.131-41,69.131,39.912,69.12-39.9-69.123-39.9Z" transform="translate(-399.516 -283.49)"/></g><g transform="translate(728.152 354.474)"><path class="b" d="M470.528,322.518l-71.014-41,.706-.409,70.306-40.57,71.005,40.986Zm-69.131-41,69.131,39.91,69.12-39.9-69.122-39.9Z" transform="translate(-399.514 -240.541)"/></g><g transform="translate(728.15 273.583)"><path class="b" d="M470.4,279.568l-.235-.136-70.649-41.088,71.139-40.754.235.137L541.53,238.8Zm-69-41.218,69,40.131,69.246-39.688-69-40.116Z" transform="translate(-399.513 -197.591)"/></g><g transform="translate(588.029 192.457)"><path class="b" d="M396,236.493l-.235-.136L325.114,195.27l71.141-40.754.235.136,70.64,41.071Zm-69-41.218,69,40.131,69.244-39.688-69-40.116Z" transform="translate(-325.114 -154.516)"/></g><g transform="translate(588.279 111.566)"><path class="b" d="M396.133,193.543l-.235-.136-70.651-41.086,71.139-40.756.235.137,70.643,41.071Zm-69-41.218,69.007,40.131,69.244-39.688-69-40.114Z" transform="translate(-325.247 -111.566)"/></g><g transform="translate(658.09 394.703)"><path class="b" d="M433.2,343.88l-.235-.139-70.649-41.086.708-.4L433.455,261.9l.235.139,70.641,41.069-.708.4Zm-69-41.217,69,40.129,69.246-39.69-69-40.112Z" transform="translate(-362.314 -261.901)"/></g><g transform="translate(588.153 435.363)"><path class="b" d="M396.064,365.471l-.235-.139L325.18,324.246l.708-.4,70.43-40.351.235.139L467.2,324.7l-.708.4Zm-69-41.218,69,40.127,69.244-39.688-69-40.114Z" transform="translate(-325.18 -283.49)"/></g><g transform="translate(518.207 394.687)"><path class="b" d="M358.927,343.872l-.235-.137-70.651-41.088.708-.4,70.432-40.349.235.137L430.058,303.1l-.708.4Zm-69-41.218,69.007,40.129L428.175,303.1l-69-40.114Z" transform="translate(-288.041 -261.893)"/></g><g transform="translate(448.017 435.355)"><path class="b" d="M321.659,365.467l-.235-.139-70.651-41.086.708-.4,70.432-40.351.235.139L392.792,324.7l-.708.4Zm-69-41.218,69.007,40.127,69.246-39.688-69-40.112Z" transform="translate(-250.773 -283.486)"/></g><g transform="translate(658.087 314.032)"><path class="b" d="M433.328,301.047l-71.016-41,71.012-40.978,71.007,40.986Zm-69.133-41,69.133,39.912,69.12-39.9-69.123-39.9Z" transform="translate(-362.312 -219.068)"/></g></g></svg>