<svg xmlns="http://www.w3.org/2000/svg" xmlns:xlink="http://www.w3.org/1999/xlink" width="914" height="611.737" viewBox="0 0 914 611.737"><defs><style>.a{fill:url(#a);}.b{fill:url(#e);}.c{fill:url(#f);}.d{fill:#28469d;}.e{fill:#1affee;}.f{fill:url(#g);}.g{fill:url(#h);}.h{filter:url(#b);}</style><linearGradient id="a" x1="0.389" y1="0.231" x2="0.673" y2="0.842" gradientUnits="objectBoundingBox"><stop offset="0" stop-color="#1affee"/><stop offset="0.344" stop-color="#2525ef"/><stop offset="0.482" stop-color="#2428e2"/><stop offset="0.732" stop-color="#2232c2"/><stop offset="1" stop-color="#21409a"/></linearGradient><filter id="b" x="0" y="0" width="914" height="611.737" filterUnits="userSpaceOnUse"><feOffset dy="13" input="SourceAlpha"/><feGaussianBlur stdDeviation="23" result="c"/><feFlood flood-opacity="0.161"/><feComposite operator="in" in2="c"/><feComposite in="SourceGraphic"/></filter><linearGradient id="e" x1="0.773" y1="0.093" x2="0.411" y2="0.871" gradientUnits="objectBoundingBox"><stop offset="0" stop-color="#2525ef"/><stop offset="0.2" stop-color="#2428e4"/><stop offset="0.542" stop-color="#2331c8"/><stop offset="0.754" stop-color="#2546aa"/><stop offset="1" stop-color="#122d7c"/></linearGradient><linearGradient id="f" x1="0.606" y1="0.888" x2="0.371" y2="0.027" gradientUnits="objectBoundingBox"><stop offset="0" stop-color="#7f3f98"/><stop offset="1" stop-color="#03a9f4"/></linearGradient><linearGradient id="g" x1="0.08" y1="-0.704" x2="0.834" y2="1.468" gradientUnits="objectBoundingBox"><stop offset="0" stop-color="#28ffef"/><stop offset="0.107" stop-color="#27f4ea"/><stop offset="0.293" stop-color="#26d8dd"/><stop offset="0.535" stop-color="#24aac9"/><stop offset="0.82" stop-color="#226bad"/><stop offset="1" stop-color="#21409a"/></linearGradient><linearGradient id="h" x1="0.118" y1="-0.594" x2="0.873" y2="1.578" xlink:href="#g"/></defs><g transform="translate(461.459 -59.931)"><g class="h" transform="matrix(1, 0, 0, 1, -461.46, 59.93)"><path class="a" d="M-934.874,380.894l-236.2-136.322a10.662,10.662,0,0,1-5.379-9.378l-.005,0V213.648a10.669,10.669,0,0,1,5.385-9.421L-669.06-85.611a27.012,27.012,0,0,1,27,0l236.243,136.4a10.6,10.6,0,0,1,5.354,9.141h0V81.618l-.017.009q0,.043,0,.086,0,.171,0,.342a10.576,10.576,0,0,1-5.336,8.973l-502.06,289.866a26.988,26.988,0,0,1-13.5,3.617A26.988,26.988,0,0,1-934.874,380.894Z" transform="translate(1245.46 145.23)"/></g><path class="a" d="M383.541,245.131l-31.789,6.291L141.942,130.288a27,27,0,0,0-27,0L-327.818,385.912l-64.641,12.793v21.689l.006,0a10.662,10.662,0,0,0,5.379,9.378l236.2,136.323a27,27,0,0,0,27,0l502.06-289.866a10.591,10.591,0,0,0,5.339-9.4l.017-.009Z" transform="translate(0 19.954)"/><path class="b" d="M-302.425,492.552a26.926,26.926,0,0,0,11.247-3.47l502.06-289.866a10.591,10.591,0,0,0,5.339-9.4l.017-.009V168.115l-31.789,6.291-3.964-2.289-482.91,280.645Z" transform="translate(167.303 96.97)"/><path class="c" d="M-150.874,564.36l-236.2-136.323a10.769,10.769,0,0,1,0-18.653L114.94,119.547a27.009,27.009,0,0,1,27,0l236.243,136.4a10.707,10.707,0,0,1,0,18.547l-502.06,289.866A27.011,27.011,0,0,1-150.874,564.36Z" transform="translate(0 0)"/><path class="d" d="M-366.494,378.747,71.7,122.5a4.039,4.039,0,0,1,4.062-.014L294.294,248.656a4.041,4.041,0,0,1,0,7L-142.664,507.93C-143.913,508.65-366.494,378.747-366.494,378.747Z" transform="translate(48.249 11.17)"/><g transform="translate(-290.881 440.867)"><path class="e" d="M-278.965,285.892a6.072,6.072,0,0,1-2.975-.72l-73.456-42.4a2.722,2.722,0,0,1-1.523-2.3,2.711,2.711,0,0,1,1.523-2.3l13.579-7.84a6.5,6.5,0,0,1,5.954,0l73.456,42.4a2.706,2.706,0,0,1,1.521,2.3,2.712,2.712,0,0,1-1.521,2.292l-13.582,7.843A6.05,6.05,0,0,1-278.965,285.892Zm-59.874-54.275a4.092,4.092,0,0,0-1.978.455l-13.582,7.846c-.36.206-.52.429-.52.56s.16.354.523.563l73.456,42.4a4.519,4.519,0,0,0,3.95,0l13.585-7.84c.357-.209.517-.432.517-.563s-.16-.354-.52-.566l-73.456-42.4A4.12,4.12,0,0,0-338.839,231.617Z" transform="translate(356.92 -229.616)"/></g><path class="f" d="M-159.047,210.266l-34.584,19.968a3.441,3.441,0,0,0-1.721,2.984v3.3a2.315,2.315,0,0,0,3.473,2.006l35.207-20.328a3.443,3.443,0,0,0,1.724-2.981v-2.584A2.733,2.733,0,0,0-159.047,210.266Z" transform="translate(366.267 169.607)"/><path class="g" d="M-142.879,201.055l-34.584,19.965A3.445,3.445,0,0,0-179.184,224v3.3a2.315,2.315,0,0,0,3.473,2.007l35.207-20.328A3.444,3.444,0,0,0-138.78,206v-2.581A2.733,2.733,0,0,0-142.879,201.055Z" transform="translate(396.311 152.491)"/><path class="d" d="M-330,263.35a5.486,5.486,0,0,1,2.475,4.287v3.233c0,1.572-1.112,2.215-2.475,1.429l-23.7-13.688a5.494,5.494,0,0,1-2.475-4.287V251.1c0-1.572,1.115-2.215,2.475-1.429Z" transform="translate(67.409 243.899)"/></g></svg>